<svg width="360" height="276" viewBox="0 0 360 276" fill="none" xmlns="http://www.w3.org/2000/svg">
<g clip-path="url(#clip0_2024_2)">
<rect width="360" height="276" fill="url(#paint0_linear_2024_2)"/>
<path d="M-235.401 216.833H-250V247.358L82.0554 247.358L82.0554 161.889H71.1726V158.173H60.8208V138H35.6048V150.741V191.617H29.7653V175.957L-23.0557 175.957V191.617H-24.9137L-24.9137 161.623H-31.8149V143.84H-38.7162V139.858H-41.9014V143.043H-58.6236V156.846L-74.2841 156.846L-78.2655 161.623L-78.2655 216.037H-91.2717V204.358L-140.111 192.944L-140.111 210.728L-153.117 223.735L-161.08 223.735L-161.08 165.87L-183.907 151.537L-183.907 205.951H-189.747L-189.747 169.056L-217.617 169.056V181.531H-229.827V242.58H-235.401V216.833Z" fill="#0150A6"/>
<path d="M20.399 159.261H0V234.536H359.713V184.832V174.776L356.265 172.765V156.101H327.247V138H289.034V183.97H280.415V194.313H273.52V199.772H270.934V196.324L266.049 198.623V183.97H245.65V174.488H226.401V179.66L199.393 179.085V157.25H171.812V170.466H150.551L145.954 173.339V181.671H103.144V176.5V170.179H85.9058V177.936L59.186 177.362H49.992V195.749H33.9026V188.854V173.339L20.399 170.466V159.261Z" fill="#0F3B6A" fill-opacity="0.3"/>
<g filter="url(#filter0_f_2024_2)">
<rect x="297" y="174" width="2" height="2" fill="#D9D9D9"/>
<rect x="307" y="174" width="2" height="2" fill="#D9D9D9"/>
<rect x="317" y="174" width="2" height="2" fill="#D9D9D9"/>
<rect x="297" y="181" width="2" height="2" fill="#D9D9D9"/>
<rect x="307" y="181" width="2" height="2" fill="#D9D9D9"/>
<rect x="317" y="181" width="2" height="2" fill="#D9D9D9"/>
</g>
<path d="M12.9286 200.346H0.574219L0.861529 268.725H116.36V249.763V239.707H185.889V221.319H182.729V194.312H166.927V222.468L162.617 220.457V191.726H132.737V173.913H101.42L99.1217 176.786V214.424H89.6405V180.808V161.559H63.2079V170.178L58.0363 176.786V189.715H48.2678V186.267H17.8128L12.9286 192.588V200.346Z" fill="#165496" fill-opacity="0.3"/>
<path d="M16.3763 242.144H0.574219V275.184H360V182.67H348.22V178.648H337.015V156.812H309.72V170.603V214.849H303.399V197.898H246.225V214.849H244.213V182.383H236.743V163.133H229.273V158.824H225.826V162.271H207.725V177.212H190.774L186.464 182.383V241.282H172.386V228.64L119.521 216.286V235.536L105.443 249.614H96.8232V186.98L72.1145 171.465V230.364H65.7937V190.428H35.6261V203.931H22.4098V270.013H16.3763V242.144Z" fill="#0150A6"/>
<rect x="311" y="155" width="2" height="2" fill="#D9D9D9"/>
<rect x="271" y="224" width="2" height="2" fill="#D9D9D9"/>
<rect x="74" y="175" width="2" height="2" fill="#D9D9D9"/>
<g filter="url(#filter1_f_2024_2)">
<rect x="59" y="136" width="2" height="2" fill="#3269A6"/>
<rect x="58.75" y="135.75" width="2.5" height="2.5" stroke="white" stroke-width="0.5"/>
</g>
<g filter="url(#filter2_f_2024_2)">
<rect x="40" y="145" width="2" height="2" fill="#D9D9D9"/>
<rect x="40" y="150" width="2" height="2" fill="#D9D9D9"/>
<rect x="51" y="150" width="2" height="2" fill="#D9D9D9"/>
<rect x="51" y="145" width="2" height="2" fill="#D9D9D9"/>
</g>
<rect x="81" y="213" width="2" height="2" fill="#D9D9D9"/>
<g filter="url(#filter3_f_2024_2)">
<rect x="35" y="213" width="2" height="2" fill="#D9D9D9"/>
<rect x="45" y="213" width="2" height="2" fill="#D9D9D9"/>
<rect x="55" y="213" width="2" height="2" fill="#D9D9D9"/>
<rect x="35" y="221" width="2" height="2" fill="#D9D9D9"/>
<rect x="45" y="221" width="2" height="2" fill="#D9D9D9"/>
<rect x="55" y="221" width="2" height="2" fill="#D9D9D9"/>
</g>
<rect x="330" y="244" width="2" height="2" fill="#2576CF"/>
<rect x="340" y="244" width="2" height="2" fill="#2576CF"/>
<rect x="350" y="244" width="2" height="2" fill="#2576CF"/>
<rect x="330" y="252" width="2" height="2" fill="#2576CF"/>
<rect x="340" y="252" width="2" height="2" fill="#2576CF"/>
<rect x="350" y="252" width="2" height="2" fill="#2576CF"/>
<rect y="214" width="2" height="2" fill="#3269A6"/>
<rect x="10" y="214" width="2" height="2" fill="#3269A6"/>
<rect y="222" width="2" height="2" fill="#3269A6"/>
<rect x="10" y="222" width="2" height="2" fill="#3269A6"/>
<g filter="url(#filter4_f_2024_2)">
<path d="M64 137C64 139.209 62.2091 141 60 141C57.7909 141 56 139.209 56 137C56 134.791 57.7909 133 60 133C62.2091 133 64 134.791 64 137ZM56.7387 137C56.7387 138.801 58.1988 140.261 60 140.261C61.8012 140.261 63.2613 138.801 63.2613 137C63.2613 135.199 61.8012 133.739 60 133.739C58.1988 133.739 56.7387 135.199 56.7387 137Z" fill="#D9D9D9"/>
</g>
<g filter="url(#filter5_f_2024_2)">
<path d="M315 156C315 158.209 313.209 160 311 160C308.791 160 307 158.209 307 156C307 153.791 308.791 152 311 152C313.209 152 315 153.791 315 156ZM307.739 156C307.739 157.801 309.199 159.261 311 159.261C312.801 159.261 314.261 157.801 314.261 156C314.261 154.199 312.801 152.739 311 152.739C309.199 152.739 307.739 154.199 307.739 156Z" fill="#D9D9D9"/>
</g>
</g>
<defs>
<filter id="filter0_f_2024_2" x="293" y="170" width="30" height="17" filterUnits="userSpaceOnUse" color-interpolation-filters="sRGB">
<feFlood flood-opacity="0" result="BackgroundImageFix"/>
<feBlend mode="normal" in="SourceGraphic" in2="BackgroundImageFix" result="shape"/>
<feGaussianBlur stdDeviation="2" result="effect1_foregroundBlur_2024_2"/>
</filter>
<filter id="filter1_f_2024_2" x="56.5" y="133.5" width="7" height="7" filterUnits="userSpaceOnUse" color-interpolation-filters="sRGB">
<feFlood flood-opacity="0" result="BackgroundImageFix"/>
<feBlend mode="normal" in="SourceGraphic" in2="BackgroundImageFix" result="shape"/>
<feGaussianBlur stdDeviation="1" result="effect1_foregroundBlur_2024_2"/>
</filter>
<filter id="filter2_f_2024_2" x="38" y="143" width="17" height="11" filterUnits="userSpaceOnUse" color-interpolation-filters="sRGB">
<feFlood flood-opacity="0" result="BackgroundImageFix"/>
<feBlend mode="normal" in="SourceGraphic" in2="BackgroundImageFix" result="shape"/>
<feGaussianBlur stdDeviation="1" result="effect1_foregroundBlur_2024_2"/>
</filter>
<filter id="filter3_f_2024_2" x="32.5" y="210.5" width="27" height="15" filterUnits="userSpaceOnUse" color-interpolation-filters="sRGB">
<feFlood flood-opacity="0" result="BackgroundImageFix"/>
<feBlend mode="normal" in="SourceGraphic" in2="BackgroundImageFix" result="shape"/>
<feGaussianBlur stdDeviation="1.25" result="effect1_foregroundBlur_2024_2"/>
</filter>
<filter id="filter4_f_2024_2" x="51" y="128" width="18" height="18" filterUnits="userSpaceOnUse" color-interpolation-filters="sRGB">
<feFlood flood-opacity="0" result="BackgroundImageFix"/>
<feBlend mode="normal" in="SourceGraphic" in2="BackgroundImageFix" result="shape"/>
<feGaussianBlur stdDeviation="2.5" result="effect1_foregroundBlur_2024_2"/>
</filter>
<filter id="filter5_f_2024_2" x="297" y="142" width="28" height="28" filterUnits="userSpaceOnUse" color-interpolation-filters="sRGB">
<feFlood flood-opacity="0" result="BackgroundImageFix"/>
<feBlend mode="normal" in="SourceGraphic" in2="BackgroundImageFix" result="shape"/>
<feGaussianBlur stdDeviation="5" result="effect1_foregroundBlur_2024_2"/>
</filter>
<linearGradient id="paint0_linear_2024_2" x1="247.5" y1="28" x2="180" y2="276" gradientUnits="userSpaceOnUse">
<stop stop-color="#007BFF"/>
<stop offset="1" stop-color="#004A99"/>
</linearGradient>
<clipPath id="clip0_2024_2">
<rect width="360" height="276" fill="white"/>
</clipPath>
</defs>
</svg>
