<svg width="145" height="38" viewBox="0 0 145 38" fill="none" xmlns="http://www.w3.org/2000/svg">
<g filter="url(#filter0_d_2024_71)">
<rect x="2" width="141" height="34" rx="5" fill="#FFCCCC" fill-opacity="0.45" shape-rendering="crispEdges"/>
<path d="M15.079 22V13.498H20.201V14.759H16.587V16.943H19.642V18.217H16.587V20.726H20.331V22H15.079ZM21.6841 22V15.617H22.9191L23.0231 16.488H23.0751C23.3438 16.202 23.6385 15.9593 23.9591 15.76C24.2798 15.5607 24.6351 15.461 25.0251 15.461C25.5018 15.461 25.8788 15.5607 26.1561 15.76C26.4335 15.9593 26.6458 16.241 26.7931 16.605C27.0965 16.2757 27.4128 16.0027 27.7421 15.786C28.0715 15.5693 28.4398 15.461 28.8471 15.461C29.5231 15.461 30.0171 15.682 30.3291 16.124C30.6498 16.566 30.8101 17.19 30.8101 17.996V22H29.3151V18.191C29.3151 17.6623 29.2371 17.2897 29.0811 17.073C28.9251 16.8477 28.6781 16.735 28.3401 16.735C28.1408 16.735 27.9285 16.8 27.7031 16.93C27.4865 17.06 27.2525 17.2637 27.0011 17.541V22H25.5061V18.191C25.5061 17.6623 25.4238 17.2897 25.2591 17.073C25.1031 16.8477 24.8561 16.735 24.5181 16.735C24.1195 16.735 23.6731 17.0037 23.1791 17.541V22H21.6841ZM35.1102 22.156C34.5208 22.156 33.9878 22.026 33.5112 21.766C33.0345 21.4973 32.6575 21.116 32.3802 20.622C32.1028 20.1193 31.9642 19.517 31.9642 18.815C31.9642 18.1217 32.1028 17.528 32.3802 17.034C32.6662 16.5313 33.0345 16.1457 33.4852 15.877C33.9358 15.5997 34.4082 15.461 34.9022 15.461C35.4742 15.461 35.9552 15.591 36.3452 15.851C36.7438 16.1023 37.0428 16.4577 37.2422 16.917C37.4415 17.3677 37.5412 17.892 37.5412 18.49C37.5412 18.6287 37.5325 18.7673 37.5152 18.906C37.5065 19.036 37.4935 19.14 37.4762 19.218H33.1082L33.0822 18.204H36.2542C36.2542 17.7013 36.1415 17.3113 35.9162 17.034C35.6995 16.7567 35.3745 16.618 34.9412 16.618C34.6812 16.618 34.4298 16.6917 34.1872 16.839C33.9445 16.9777 33.7408 17.2073 33.5762 17.528C33.4202 17.8487 33.3465 18.2733 33.3552 18.802C33.3725 19.322 33.4722 19.7467 33.6542 20.076C33.8362 20.3967 34.0702 20.6307 34.3562 20.778C34.6508 20.9253 34.9672 20.999 35.3052 20.999C35.5825 20.999 35.8425 20.96 36.0852 20.882C36.3365 20.804 36.5748 20.6957 36.8002 20.557L37.2942 21.467C36.9995 21.675 36.6615 21.844 36.2802 21.974C35.9075 22.0953 35.5175 22.156 35.1102 22.156ZM38.709 22V15.617H39.944L40.048 16.748H40.1C40.3167 16.332 40.5854 16.0157 40.906 15.799C41.2267 15.5737 41.5604 15.461 41.907 15.461C42.0717 15.461 42.2104 15.474 42.323 15.5C42.4357 15.5173 42.5397 15.5477 42.635 15.591L42.336 16.865C42.232 16.839 42.1367 16.8217 42.05 16.813C41.9634 16.7957 41.8507 16.787 41.712 16.787C41.4607 16.787 41.1964 16.8867 40.919 17.086C40.6417 17.2767 40.4034 17.6147 40.204 18.1V22H38.709ZM45.3947 24.821C44.892 24.821 44.437 24.7603 44.0297 24.639C43.631 24.5177 43.3147 24.3313 43.0807 24.08C42.8467 23.8373 42.7297 23.5297 42.7297 23.157C42.7297 22.8883 42.812 22.637 42.9767 22.403C43.1414 22.1777 43.3667 21.974 43.6527 21.792V21.74C43.4967 21.636 43.3624 21.4973 43.2497 21.324C43.137 21.1507 43.0807 20.9383 43.0807 20.687C43.0807 20.427 43.15 20.1973 43.2887 19.998C43.436 19.79 43.6007 19.621 43.7827 19.491V19.439C43.566 19.2743 43.371 19.0447 43.1977 18.75C43.0244 18.4553 42.9377 18.1217 42.9377 17.749C42.9377 17.2637 43.0547 16.852 43.2887 16.514C43.5227 16.1673 43.8304 15.9073 44.2117 15.734C44.6017 15.552 45.022 15.461 45.4727 15.461C45.646 15.461 45.815 15.474 45.9797 15.5C46.1444 15.526 46.2917 15.565 46.4217 15.617H48.6967V16.722H47.5007V16.774C47.6134 16.904 47.7044 17.0557 47.7737 17.229C47.8517 17.3937 47.8907 17.5887 47.8907 17.814C47.8907 18.282 47.7824 18.6763 47.5657 18.997C47.349 19.3177 47.0587 19.5647 46.6947 19.738C46.3307 19.9027 45.9234 19.985 45.4727 19.985C45.334 19.985 45.191 19.972 45.0437 19.946C44.8964 19.9113 44.749 19.8637 44.6017 19.803C44.5064 19.8897 44.4284 19.9807 44.3677 20.076C44.3157 20.1627 44.2897 20.2797 44.2897 20.427C44.2897 20.6003 44.3634 20.739 44.5107 20.843C44.6667 20.947 44.9397 20.999 45.3297 20.999H46.4607C47.2234 20.999 47.804 21.1247 48.2027 21.376C48.6014 21.6187 48.8007 22.0173 48.8007 22.572C48.8007 22.9967 48.662 23.378 48.3847 23.716C48.1074 24.054 47.713 24.3227 47.2017 24.522C46.699 24.7213 46.0967 24.821 45.3947 24.821ZM45.4727 19.036C45.672 19.036 45.854 18.9883 46.0187 18.893C46.192 18.789 46.3264 18.6417 46.4217 18.451C46.5257 18.2517 46.5777 18.0177 46.5777 17.749C46.5777 17.3503 46.4694 17.0427 46.2527 16.826C46.0447 16.6093 45.7847 16.501 45.4727 16.501C45.1607 16.501 44.8964 16.6093 44.6797 16.826C44.4717 17.0427 44.3677 17.3503 44.3677 17.749C44.3677 18.0177 44.4154 18.2517 44.5107 18.451C44.6147 18.6417 44.749 18.789 44.9137 18.893C45.0784 18.9883 45.2647 19.036 45.4727 19.036ZM45.6287 23.846C45.9754 23.846 46.2787 23.7983 46.5387 23.703C46.7987 23.6163 46.998 23.4907 47.1367 23.326C47.284 23.17 47.3577 23.001 47.3577 22.819C47.3577 22.5677 47.258 22.3987 47.0587 22.312C46.868 22.2253 46.5907 22.182 46.2267 22.182H45.3557C45.1824 22.182 45.0264 22.1733 44.8877 22.156C44.749 22.1387 44.619 22.117 44.4977 22.091C44.3244 22.221 44.1944 22.3553 44.1077 22.494C44.0297 22.6327 43.9907 22.78 43.9907 22.936C43.9907 23.222 44.138 23.443 44.4327 23.599C44.7274 23.7637 45.126 23.846 45.6287 23.846ZM52.1798 22.156C51.5904 22.156 51.0574 22.026 50.5808 21.766C50.1041 21.4973 49.7271 21.116 49.4498 20.622C49.1724 20.1193 49.0338 19.517 49.0338 18.815C49.0338 18.1217 49.1724 17.528 49.4498 17.034C49.7358 16.5313 50.1041 16.1457 50.5548 15.877C51.0054 15.5997 51.4778 15.461 51.9718 15.461C52.5438 15.461 53.0248 15.591 53.4148 15.851C53.8134 16.1023 54.1124 16.4577 54.3118 16.917C54.5111 17.3677 54.6108 17.892 54.6108 18.49C54.6108 18.6287 54.6021 18.7673 54.5848 18.906C54.5761 19.036 54.5631 19.14 54.5458 19.218H50.1778L50.1518 18.204H53.3238C53.3238 17.7013 53.2111 17.3113 52.9858 17.034C52.7691 16.7567 52.4441 16.618 52.0108 16.618C51.7508 16.618 51.4994 16.6917 51.2568 16.839C51.0141 16.9777 50.8104 17.2073 50.6458 17.528C50.4898 17.8487 50.4161 18.2733 50.4248 18.802C50.4421 19.322 50.5418 19.7467 50.7238 20.076C50.9058 20.3967 51.1398 20.6307 51.4258 20.778C51.7204 20.9253 52.0368 20.999 52.3748 20.999C52.6521 20.999 52.9121 20.96 53.1548 20.882C53.4061 20.804 53.6444 20.6957 53.8698 20.557L54.3638 21.467C54.0691 21.675 53.7311 21.844 53.3498 21.974C52.9771 22.0953 52.5871 22.156 52.1798 22.156ZM55.7786 22V15.617H57.0136L57.1176 16.475H57.1696C57.4556 16.189 57.7676 15.9507 58.1056 15.76C58.4436 15.5607 58.8293 15.461 59.2626 15.461C59.9473 15.461 60.4456 15.682 60.7576 16.124C61.0696 16.566 61.2256 17.19 61.2256 17.996V22H59.7306V18.191C59.7306 17.6623 59.6483 17.2897 59.4836 17.073C59.3276 16.8477 59.0763 16.735 58.7296 16.735C58.4523 16.735 58.2053 16.8043 57.9886 16.943C57.7806 17.0817 57.5423 17.281 57.2736 17.541V22H55.7786ZM65.4841 22.156C64.8947 22.156 64.3617 22.026 63.8851 21.766C63.4171 21.4973 63.0487 21.116 62.7801 20.622C62.5114 20.1193 62.3771 19.517 62.3771 18.815C62.3771 18.1043 62.5244 17.502 62.8191 17.008C63.1224 16.5053 63.5167 16.124 64.0021 15.864C64.4874 15.5953 65.0117 15.461 65.5751 15.461C65.9824 15.461 66.3377 15.526 66.6411 15.656C66.9531 15.786 67.2217 15.9593 67.4471 16.176L66.7191 17.099C66.5804 16.9777 66.4244 16.878 66.2511 16.8C66.0864 16.722 65.8871 16.683 65.6531 16.683C65.3151 16.683 65.0161 16.7697 64.7561 16.943C64.4961 17.1163 64.2881 17.3677 64.1321 17.697C63.9847 18.0177 63.9111 18.3903 63.9111 18.815C63.9111 19.2397 63.9847 19.6123 64.1321 19.933C64.2794 20.2537 64.4787 20.5007 64.7301 20.674C64.9901 20.8473 65.2891 20.934 65.6271 20.934C65.8697 20.934 66.0994 20.8863 66.3161 20.791C66.5414 20.6957 66.7451 20.5743 66.9271 20.427L67.5381 21.337C67.2781 21.5883 66.9704 21.7877 66.6151 21.935C66.2597 22.0823 65.8827 22.156 65.4841 22.156ZM69.0047 24.613C68.8401 24.613 68.6884 24.6 68.5497 24.574C68.4197 24.548 68.2941 24.5177 68.1727 24.483L68.4717 23.352C68.5584 23.378 68.6364 23.3953 68.7057 23.404C68.7751 23.4127 68.8444 23.417 68.9137 23.417C69.2517 23.417 69.5204 23.313 69.7197 23.105C69.9277 22.897 70.0837 22.637 70.1877 22.325L70.3047 21.922L67.7957 15.617H69.3167L70.4217 18.75C70.5171 19.0273 70.6081 19.322 70.6947 19.634C70.7901 19.9373 70.8854 20.2407 70.9807 20.544H71.0327C71.1107 20.2493 71.1887 19.9503 71.2667 19.647C71.3534 19.335 71.4357 19.036 71.5137 18.75L72.4757 15.617H73.9187L71.6047 22.286C71.4314 22.7627 71.2321 23.1743 71.0067 23.521C70.7814 23.8677 70.5084 24.1363 70.1877 24.327C69.8671 24.5177 69.4727 24.613 69.0047 24.613Z" fill="#FF6666"/>
<path d="M126.688 7.83398C126.688 7.45429 126.38 7.14648 126 7.14648C125.62 7.14648 125.312 7.45429 125.312 7.83398V10.584C125.312 10.9637 125.62 11.2715 126 11.2715C126.38 11.2715 126.688 10.9637 126.688 10.584V7.83398Z" fill="#FF9999"/>
<path fill-rule="evenodd" clip-rule="evenodd" d="M116.834 25.4798H118.667V20.6673C118.667 16.6172 121.951 13.334 126.001 13.334C130.051 13.334 133.334 16.6172 133.334 20.6673V25.4798H135.167C135.547 25.4798 135.855 25.7876 135.855 26.1673C135.855 26.547 135.547 26.8548 135.167 26.8548H116.834C116.454 26.8548 116.146 26.547 116.146 26.1673C116.146 25.7876 116.454 25.4798 116.834 25.4798ZM127.463 16.2844C127.605 15.9324 128.006 15.7626 128.358 15.9051C129.45 16.347 130.321 17.2178 130.763 18.3095C130.905 18.6615 131.087 24.215 130.735 24.3575C130.383 24.5 129.142 24.8519 129 24.5C128.698 23.7534 128.589 24.8022 127.842 24.5C127.49 24.3576 127.321 16.6363 127.463 16.2844Z" fill="#FF9999"/>
<path d="M134.736 11.0139C135.005 11.2823 135.005 11.7177 134.736 11.9861L133.361 13.3611C133.093 13.6296 132.657 13.6296 132.389 13.3611C132.12 13.0927 132.12 12.6573 132.389 12.3889L133.764 11.0139C134.032 10.7454 134.468 10.7454 134.736 11.0139Z" fill="#FF9999"/>
</g>
<defs>
<filter id="filter0_d_2024_71" x="0" y="0" width="145" height="38" filterUnits="userSpaceOnUse" color-interpolation-filters="sRGB">
<feFlood flood-opacity="0" result="BackgroundImageFix"/>
<feColorMatrix in="SourceAlpha" type="matrix" values="0 0 0 0 0 0 0 0 0 0 0 0 0 0 0 0 0 0 127 0" result="hardAlpha"/>
<feOffset dy="2"/>
<feGaussianBlur stdDeviation="1"/>
<feComposite in2="hardAlpha" operator="out"/>
<feColorMatrix type="matrix" values="0 0 0 0 0.532524 0 0 0 0 0.133317 0 0 0 0 0.133317 0 0 0 0.25 0"/>
<feBlend mode="normal" in2="BackgroundImageFix" result="effect1_dropShadow_2024_71"/>
<feBlend mode="normal" in="SourceGraphic" in2="effect1_dropShadow_2024_71" result="shape"/>
</filter>
</defs>
</svg>
