<svg width="318" height="63" viewBox="0 0 318 63" fill="none" xmlns="http://www.w3.org/2000/svg">
<g filter="url(#filter0_d_2024_100)">
<g clip-path="url(#clip0_2024_100)">
<mask id="path-1-inside-1_2024_100" fill="white">
<path d="M0 5C0 2.23858 2.23858 0 5 0H313C315.761 0 318 2.23858 318 5V57H0V5Z"/>
</mask>
<path d="M0 5C0 2.23858 2.23858 0 5 0H313C315.761 0 318 2.23858 318 5V57H0V5Z" fill="#FFE8E8"/>
<path d="M26.494 34V22.228H33.586V23.974H28.582V26.998H32.812V28.762H28.582V32.236H33.766V34H26.494ZM35.6395 34V25.162H37.3495L37.4935 26.368H37.5655C37.9375 25.972 38.3455 25.636 38.7895 25.36C39.2335 25.084 39.7255 24.946 40.2655 24.946C40.9255 24.946 41.4475 25.084 41.8315 25.36C42.2155 25.636 42.5095 26.026 42.7135 26.53C43.1335 26.074 43.5715 25.696 44.0275 25.396C44.4835 25.096 44.9935 24.946 45.5575 24.946C46.4935 24.946 47.1775 25.252 47.6095 25.864C48.0535 26.476 48.2755 27.34 48.2755 28.456V34H46.2055V28.726C46.2055 27.994 46.0975 27.478 45.8815 27.178C45.6655 26.866 45.3235 26.71 44.8555 26.71C44.5795 26.71 44.2855 26.8 43.9735 26.98C43.6735 27.16 43.3495 27.442 43.0015 27.826V34H40.9315V28.726C40.9315 27.994 40.8175 27.478 40.5895 27.178C40.3735 26.866 40.0315 26.71 39.5635 26.71C39.0115 26.71 38.3935 27.082 37.7095 27.826V34H35.6395ZM54.2295 34.216C53.4135 34.216 52.6755 34.036 52.0155 33.676C51.3555 33.304 50.8335 32.776 50.4495 32.092C50.0655 31.396 49.8735 30.562 49.8735 29.59C49.8735 28.63 50.0655 27.808 50.4495 27.124C50.8455 26.428 51.3555 25.894 51.9795 25.522C52.6035 25.138 53.2575 24.946 53.9415 24.946C54.7335 24.946 55.3995 25.126 55.9395 25.486C56.4915 25.834 56.9055 26.326 57.1815 26.962C57.4575 27.586 57.5955 28.312 57.5955 29.14C57.5955 29.332 57.5835 29.524 57.5595 29.716C57.5475 29.896 57.5295 30.04 57.5055 30.148H51.4575L51.4215 28.744H55.8135C55.8135 28.048 55.6575 27.508 55.3455 27.124C55.0455 26.74 54.5955 26.548 53.9955 26.548C53.6355 26.548 53.2875 26.65 52.9515 26.854C52.6155 27.046 52.3335 27.364 52.1055 27.808C51.8895 28.252 51.7875 28.84 51.7995 29.572C51.8235 30.292 51.9615 30.88 52.2135 31.336C52.4655 31.78 52.7895 32.104 53.1855 32.308C53.5935 32.512 54.0315 32.614 54.4995 32.614C54.8835 32.614 55.2435 32.56 55.5795 32.452C55.9275 32.344 56.2575 32.194 56.5695 32.002L57.2535 33.262C56.8455 33.55 56.3775 33.784 55.8495 33.964C55.3335 34.132 54.7935 34.216 54.2295 34.216ZM59.2125 34V25.162H60.9225L61.0665 26.728H61.1385C61.4385 26.152 61.8105 25.714 62.2545 25.414C62.6985 25.102 63.1605 24.946 63.6405 24.946C63.8685 24.946 64.0605 24.964 64.2165 25C64.3725 25.024 64.5165 25.066 64.6485 25.126L64.2345 26.89C64.0905 26.854 63.9585 26.83 63.8385 26.818C63.7185 26.794 63.5625 26.782 63.3705 26.782C63.0225 26.782 62.6565 26.92 62.2725 27.196C61.8885 27.46 61.5585 27.928 61.2825 28.6V34H59.2125ZM68.4696 37.906C67.7736 37.906 67.1436 37.822 66.5796 37.654C66.0276 37.486 65.5896 37.228 65.2656 36.88C64.9416 36.544 64.7796 36.118 64.7796 35.602C64.7796 35.23 64.8936 34.882 65.1216 34.558C65.3496 34.246 65.6616 33.964 66.0576 33.712V33.64C65.8416 33.496 65.6556 33.304 65.4996 33.064C65.3436 32.824 65.2656 32.53 65.2656 32.182C65.2656 31.822 65.3616 31.504 65.5536 31.228C65.7576 30.94 65.9856 30.706 66.2376 30.526V30.454C65.9376 30.226 65.6676 29.908 65.4276 29.5C65.1876 29.092 65.0676 28.63 65.0676 28.114C65.0676 27.442 65.2296 26.872 65.5536 26.404C65.8776 25.924 66.3036 25.564 66.8316 25.324C67.3716 25.072 67.9536 24.946 68.5776 24.946C68.8176 24.946 69.0516 24.964 69.2796 25C69.5076 25.036 69.7116 25.09 69.8916 25.162H73.0416V26.692H71.3856V26.764C71.5416 26.944 71.6676 27.154 71.7636 27.394C71.8716 27.622 71.9256 27.892 71.9256 28.204C71.9256 28.852 71.7756 29.398 71.4756 29.842C71.1756 30.286 70.7736 30.628 70.2696 30.868C69.7656 31.096 69.2016 31.21 68.5776 31.21C68.3856 31.21 68.1876 31.192 67.9836 31.156C67.7796 31.108 67.5756 31.042 67.3716 30.958C67.2396 31.078 67.1316 31.204 67.0476 31.336C66.9756 31.456 66.9396 31.618 66.9396 31.822C66.9396 32.062 67.0416 32.254 67.2456 32.398C67.4616 32.542 67.8396 32.614 68.3796 32.614H69.9456C71.0016 32.614 71.8056 32.788 72.3576 33.136C72.9096 33.472 73.1856 34.024 73.1856 34.792C73.1856 35.38 72.9936 35.908 72.6096 36.376C72.2256 36.844 71.6796 37.216 70.9716 37.492C70.2756 37.768 69.4416 37.906 68.4696 37.906ZM68.5776 29.896C68.8536 29.896 69.1056 29.83 69.3336 29.698C69.5736 29.554 69.7596 29.35 69.8916 29.086C70.0356 28.81 70.1076 28.486 70.1076 28.114C70.1076 27.562 69.9576 27.136 69.6576 26.836C69.3696 26.536 69.0096 26.386 68.5776 26.386C68.1456 26.386 67.7796 26.536 67.4796 26.836C67.1916 27.136 67.0476 27.562 67.0476 28.114C67.0476 28.486 67.1136 28.81 67.2456 29.086C67.3896 29.35 67.5756 29.554 67.8036 29.698C68.0316 29.83 68.2896 29.896 68.5776 29.896ZM68.7936 36.556C69.2736 36.556 69.6936 36.49 70.0536 36.358C70.4136 36.238 70.6896 36.064 70.8816 35.836C71.0856 35.62 71.1876 35.386 71.1876 35.134C71.1876 34.786 71.0496 34.552 70.7736 34.432C70.5096 34.312 70.1256 34.252 69.6216 34.252H68.4156C68.1756 34.252 67.9596 34.24 67.7676 34.216C67.5756 34.192 67.3956 34.162 67.2276 34.126C66.9876 34.306 66.8076 34.492 66.6876 34.684C66.5796 34.876 66.5256 35.08 66.5256 35.296C66.5256 35.692 66.7296 35.998 67.1376 36.214C67.5456 36.442 68.0976 36.556 68.7936 36.556ZM77.8643 34.216C77.0483 34.216 76.3103 34.036 75.6503 33.676C74.9903 33.304 74.4683 32.776 74.0843 32.092C73.7003 31.396 73.5083 30.562 73.5083 29.59C73.5083 28.63 73.7003 27.808 74.0843 27.124C74.4803 26.428 74.9903 25.894 75.6143 25.522C76.2383 25.138 76.8923 24.946 77.5763 24.946C78.3683 24.946 79.0343 25.126 79.5743 25.486C80.1263 25.834 80.5403 26.326 80.8163 26.962C81.0923 27.586 81.2303 28.312 81.2303 29.14C81.2303 29.332 81.2183 29.524 81.1943 29.716C81.1823 29.896 81.1643 30.04 81.1403 30.148H75.0923L75.0563 28.744H79.4483C79.4483 28.048 79.2923 27.508 78.9803 27.124C78.6803 26.74 78.2303 26.548 77.6303 26.548C77.2703 26.548 76.9223 26.65 76.5863 26.854C76.2503 27.046 75.9683 27.364 75.7403 27.808C75.5243 28.252 75.4223 28.84 75.4343 29.572C75.4583 30.292 75.5963 30.88 75.8483 31.336C76.1003 31.78 76.4243 32.104 76.8203 32.308C77.2283 32.512 77.6663 32.614 78.1343 32.614C78.5183 32.614 78.8783 32.56 79.2143 32.452C79.5623 32.344 79.8923 32.194 80.2043 32.002L80.8883 33.262C80.4803 33.55 80.0123 33.784 79.4843 33.964C78.9683 34.132 78.4283 34.216 77.8643 34.216ZM82.8474 34V25.162H84.5574L84.7014 26.35H84.7734C85.1694 25.954 85.6014 25.624 86.0694 25.36C86.5374 25.084 87.0714 24.946 87.6714 24.946C88.6194 24.946 89.3094 25.252 89.7414 25.864C90.1734 26.476 90.3894 27.34 90.3894 28.456V34H88.3194V28.726C88.3194 27.994 88.2054 27.478 87.9774 27.178C87.7614 26.866 87.4134 26.71 86.9334 26.71C86.5494 26.71 86.2074 26.806 85.9074 26.998C85.6194 27.19 85.2894 27.466 84.9174 27.826V34H82.8474ZM96.2856 34.216C95.4696 34.216 94.7316 34.036 94.0716 33.676C93.4236 33.304 92.9136 32.776 92.5416 32.092C92.1696 31.396 91.9836 30.562 91.9836 29.59C91.9836 28.606 92.1876 27.772 92.5956 27.088C93.0156 26.392 93.5616 25.864 94.2336 25.504C94.9056 25.132 95.6316 24.946 96.4116 24.946C96.9756 24.946 97.4676 25.036 97.8876 25.216C98.3196 25.396 98.6916 25.636 99.0036 25.936L97.9956 27.214C97.8036 27.046 97.5876 26.908 97.3476 26.8C97.1196 26.692 96.8436 26.638 96.5196 26.638C96.0516 26.638 95.6376 26.758 95.2776 26.998C94.9176 27.238 94.6296 27.586 94.4136 28.042C94.2096 28.486 94.1076 29.002 94.1076 29.59C94.1076 30.178 94.2096 30.694 94.4136 31.138C94.6176 31.582 94.8936 31.924 95.2416 32.164C95.6016 32.404 96.0156 32.524 96.4836 32.524C96.8196 32.524 97.1376 32.458 97.4376 32.326C97.7496 32.194 98.0316 32.026 98.2836 31.822L99.1296 33.082C98.7696 33.43 98.3436 33.706 97.8516 33.91C97.3596 34.114 96.8376 34.216 96.2856 34.216ZM101.16 37.618C100.932 37.618 100.722 37.6 100.53 37.564C100.35 37.528 100.176 37.486 100.008 37.438L100.422 35.872C100.542 35.908 100.65 35.932 100.746 35.944C100.842 35.956 100.938 35.962 101.034 35.962C101.502 35.962 101.874 35.818 102.15 35.53C102.438 35.242 102.654 34.882 102.798 34.45L102.96 33.892L99.4864 25.162H101.592L103.122 29.5C103.254 29.884 103.38 30.292 103.5 30.724C103.632 31.144 103.764 31.564 103.896 31.984H103.968C104.076 31.576 104.184 31.162 104.292 30.742C104.412 30.31 104.526 29.896 104.634 29.5L105.966 25.162H107.964L104.76 34.396C104.52 35.056 104.244 35.626 103.932 36.106C103.62 36.586 103.242 36.958 102.798 37.222C102.354 37.486 101.808 37.618 101.16 37.618Z" fill="#FF9999"/>
<path d="M285.219 11.584C285.219 10.6348 284.449 9.86523 283.5 9.86523C282.551 9.86523 281.781 10.6348 281.781 11.584V18.459C281.781 19.4082 282.551 20.1777 283.5 20.1777C284.449 20.1777 285.219 19.4082 285.219 18.459V11.584Z" fill="#FF9999"/>
<path fill-rule="evenodd" clip-rule="evenodd" d="M260.584 55.6986H265.167V43.6673C265.167 33.542 273.375 25.334 283.501 25.334C293.626 25.334 301.834 33.542 301.834 43.6673V55.6986H306.417C307.367 55.6986 308.136 56.4681 308.136 57.4173C308.136 58.3665 307.367 59.1361 306.417 59.1361H260.584C259.635 59.1361 258.865 58.3665 258.865 57.4173C258.865 56.4681 259.635 55.6986 260.584 55.6986ZM287.157 32.7099C287.513 31.8299 288.515 31.4055 289.395 31.7617C292.124 32.8665 294.301 35.0435 295.406 37.7727C295.762 38.6527 296.217 52.5365 295.338 52.8927C294.458 53.249 291.355 54.1288 290.999 53.249C290.243 51.3825 289.971 54.0046 288.105 53.249C287.225 52.8929 286.8 33.5897 287.157 32.7099Z" fill="#FF9999"/>
<path d="M305.34 19.5347C306.011 20.2059 306.011 21.2941 305.34 21.9653L301.903 25.4028C301.231 26.074 300.143 26.074 299.472 25.4028C298.801 24.7316 298.801 23.6434 299.472 22.9722L302.91 19.5347C303.581 18.8634 304.669 18.8634 305.34 19.5347Z" fill="#FF9999"/>
</g>
<path d="M0 0H318H0ZM318 57.5H0V56.5H318V57.5ZM0 57V0V57ZM318 0V57V0Z" fill="#FF9999" mask="url(#path-1-inside-1_2024_100)"/>
</g>
<defs>
<filter id="filter0_d_2024_100" x="-4" y="-2" width="326" height="65" filterUnits="userSpaceOnUse" color-interpolation-filters="sRGB">
<feFlood flood-opacity="0" result="BackgroundImageFix"/>
<feColorMatrix in="SourceAlpha" type="matrix" values="0 0 0 0 0 0 0 0 0 0 0 0 0 0 0 0 0 0 127 0" result="hardAlpha"/>
<feOffset dy="2"/>
<feGaussianBlur stdDeviation="2"/>
<feComposite in2="hardAlpha" operator="out"/>
<feColorMatrix type="matrix" values="0 0 0 0 0.27451 0 0 0 0 0.360784 0 0 0 0 0.666667 0 0 0 0.25 0"/>
<feBlend mode="normal" in2="BackgroundImageFix" result="effect1_dropShadow_2024_100"/>
<feBlend mode="normal" in="SourceGraphic" in2="effect1_dropShadow_2024_100" result="shape"/>
</filter>
<clipPath id="clip0_2024_100">
<path d="M0 5C0 2.23858 2.23858 0 5 0H313C315.761 0 318 2.23858 318 5V57H0V5Z" fill="white"/>
</clipPath>
</defs>
</svg>
