<svg width="51" height="51" viewBox="0 0 51 51" fill="none" xmlns="http://www.w3.org/2000/svg">
<path d="M27.2188 2.58398C27.2188 1.63475 26.4492 0.865234 25.5 0.865234C24.5508 0.865234 23.7812 1.63475 23.7812 2.58398V9.45898C23.7812 10.4082 24.5508 11.1777 25.5 11.1777C26.4492 11.1777 27.2188 10.4082 27.2188 9.45898V2.58398Z" fill="#FF9999"/>
<path fill-rule="evenodd" clip-rule="evenodd" d="M2.58398 46.6986H7.16732V34.6673C7.16732 24.542 15.3754 16.334 25.5007 16.334C35.6259 16.334 43.834 24.542 43.834 34.6673V46.6986H48.4173C49.3665 46.6986 50.1361 47.4681 50.1361 48.4173C50.1361 49.3665 49.3665 50.1361 48.4173 50.1361H2.58398C1.63475 50.1361 0.865234 49.3665 0.865234 48.4173C0.865234 47.4681 1.63475 46.6986 2.58398 46.6986ZM29.1565 23.7099C29.5127 22.8299 30.5148 22.4055 31.3946 22.7617C34.124 23.8665 36.301 26.0435 37.4059 28.7727C37.762 29.6527 38.2173 43.5365 37.3376 43.8927C36.4576 44.249 33.3551 45.1288 32.999 44.249C32.2435 42.3825 31.9712 45.0046 30.1048 44.249C29.2251 43.8929 28.8004 24.5897 29.1565 23.7099Z" fill="#FF9999"/>
<path d="M47.3402 10.5347C48.0114 11.2059 48.0114 12.2941 47.3402 12.9653L43.9027 16.4028C43.2315 17.074 42.1434 17.074 41.4722 16.4028C40.8009 15.7316 40.8009 14.6434 41.4722 13.9722L44.9097 10.5347C45.5809 9.86345 46.669 9.86345 47.3402 10.5347Z" fill="#FF9999"/>
</svg>
