<svg width="110" height="26" viewBox="0 0 110 26" fill="none" xmlns="http://www.w3.org/2000/svg">
<path fill-rule="evenodd" clip-rule="evenodd" d="M19.7952 21.9949C22.2567 19.814 23.8082 16.6291 23.8082 13.0819C23.8082 6.50739 18.4786 1.17773 11.9041 1.17773C5.32965 1.17773 0 6.50739 0 13.0819C0 19.6563 5.32965 24.986 11.9041 24.986C12.5602 24.986 13.204 24.9329 13.8313 24.8308L12.1043 21.3455L11.4285 19.8962L9.18043 17.8078L7.72871 14.6946L5.03701 12.3557L5.13561 11.6562L5.86914 11.4775L8.67528 13.9918L10.2271 17.3198L12.5557 19.3706L15.2137 17.3561L16.8292 14.7313L16.8656 12.4271L17.4886 10.9604L18.6158 10.4347L18.8661 10.9715L18.1178 12.6601L18.0545 14.9767L16.5546 17.5059L17.2336 18.9619L19.7952 21.9949ZM13.7581 12.6999L14.9761 13.7003L15.3895 13.1154L13.9253 9.97538L12.9765 5.90878L12.1681 5.43626L11.6759 5.99248L12.7444 10.526L13.7581 12.6999ZM11.4559 12.1071L10.3935 11.2302L8.20341 6.53351L8.5149 5.80013L9.27693 6.03292L11.88 11.6153L11.4559 12.1071ZM6.16494 9.37915L8.66501 12.4283L10.0977 13.3286L10.4092 12.5952L7.09899 8.64953L6.34405 8.64215L6.16494 9.37915Z" fill="#ECECEC"/>
<path d="M32.5594 19V5.85088H34.8917V11.1387H40.1996V5.85088H42.5519V19H40.1996V13.1694H34.8917V19H32.5594ZM49.9123 19.2413C49.0009 19.2413 48.1765 19.0402 47.4393 18.6381C46.7021 18.2226 46.1191 17.6328 45.6901 16.8688C45.2612 16.0914 45.0468 15.1598 45.0468 14.0741C45.0468 13.0018 45.2612 12.0836 45.6901 11.3196C46.1325 10.5422 46.7021 9.94574 47.3991 9.53022C48.0961 9.1013 48.8266 8.88684 49.5906 8.88684C50.4753 8.88684 51.2192 9.0879 51.8224 9.49001C52.4389 9.87872 52.9014 10.4283 53.2097 11.1387C53.5179 11.8357 53.6721 12.6466 53.6721 13.5715C53.6721 13.7859 53.6587 14.0004 53.6319 14.2148C53.6185 14.4159 53.5984 14.5767 53.5716 14.6974H46.8161L46.7758 13.1291H51.6816C51.6816 12.3517 51.5074 11.7486 51.1589 11.3196C50.8238 10.8907 50.3211 10.6762 49.651 10.6762C49.2488 10.6762 48.8601 10.7902 48.4848 11.018C48.1095 11.2325 47.7945 11.5877 47.5399 12.0836C47.2986 12.5796 47.1847 13.2364 47.1981 14.054C47.2249 14.8582 47.379 15.515 47.6605 16.0244C47.942 16.5203 48.3039 16.8822 48.7462 17.1101C49.2019 17.3379 49.6912 17.4519 50.2139 17.4519C50.6428 17.4519 51.0449 17.3915 51.4203 17.2709C51.809 17.1503 52.1776 16.9827 52.5261 16.7683L53.2901 18.1757C52.8344 18.4974 52.3116 18.7587 51.7218 18.9598C51.1455 19.1474 50.5423 19.2413 49.9123 19.2413ZM58.1323 19.2011C57.5827 19.2011 57.1404 19.0938 56.8053 18.8794C56.4836 18.6515 56.249 18.3298 56.1016 17.9143C55.9541 17.4988 55.8804 17.0028 55.8804 16.4265V4.80539H58.1926V16.5471C58.1926 16.8286 58.2462 17.0296 58.3534 17.1503C58.4606 17.2575 58.5813 17.3111 58.7153 17.3111C58.7689 17.3111 58.8158 17.3111 58.8561 17.3111C58.9097 17.2977 58.9767 17.2843 59.0571 17.2709L59.3386 19C59.218 19.067 59.0504 19.1139 58.836 19.1407C58.6349 19.181 58.4003 19.2011 58.1323 19.2011ZM61.3388 22.9005V9.12811H63.2488L63.4097 10.1736H63.4901C63.9056 9.8117 64.3681 9.51012 64.8774 9.26885C65.3867 9.01418 65.9162 8.88684 66.4657 8.88684C67.2834 8.88684 67.9804 9.0946 68.5567 9.51012C69.1331 9.92563 69.5754 10.5087 69.8837 11.2593C70.192 12.0099 70.3461 12.8946 70.3461 13.9133C70.3461 15.0392 70.1451 16.0043 69.743 16.8085C69.3409 17.5993 68.8181 18.2025 68.1747 18.618C67.5448 19.0335 66.8612 19.2413 66.1239 19.2413C65.6816 19.2413 65.246 19.1474 64.8171 18.9598C64.4016 18.7587 63.9927 18.4907 63.5906 18.1556L63.651 19.8042V22.9005H61.3388ZM65.6414 17.3312C66.0837 17.3312 66.4792 17.2039 66.8276 16.9492C67.1761 16.6945 67.4509 16.3125 67.652 15.8032C67.853 15.2939 67.9536 14.6706 67.9536 13.9334C67.9536 13.2766 67.8798 12.7136 67.7324 12.2445C67.585 11.7754 67.3504 11.4202 67.0287 11.1789C66.7204 10.9242 66.3116 10.7969 65.8023 10.7969C65.4538 10.7969 65.1053 10.8907 64.7568 11.0784C64.4083 11.2526 64.0397 11.5274 63.651 11.9027V16.5069C64.0129 16.8018 64.3614 17.0162 64.6964 17.1503C65.0449 17.2709 65.3599 17.3312 65.6414 17.3312ZM72.6875 22.9005V9.12811H74.5976L74.7584 10.1736H74.8388C75.2543 9.8117 75.7168 9.51012 76.2261 9.26885C76.7355 9.01418 77.2649 8.88684 77.8145 8.88684C78.6321 8.88684 79.3291 9.0946 79.9055 9.51012C80.4818 9.92563 80.9241 10.5087 81.2324 11.2593C81.5407 12.0099 81.6949 12.8946 81.6949 13.9133C81.6949 15.0392 81.4938 16.0043 81.0917 16.8085C80.6896 17.5993 80.1668 18.2025 79.5234 18.618C78.8935 19.0335 78.2099 19.2413 77.4727 19.2413C77.0303 19.2413 76.5947 19.1474 76.1658 18.9598C75.7503 18.7587 75.3415 18.4907 74.9393 18.1556L74.9997 19.8042V22.9005H72.6875ZM76.9901 17.3312C77.4325 17.3312 77.8279 17.2039 78.1764 16.9492C78.5249 16.6945 78.7996 16.3125 79.0007 15.8032C79.2018 15.2939 79.3023 14.6706 79.3023 13.9334C79.3023 13.2766 79.2286 12.7136 79.0811 12.2445C78.9337 11.7754 78.6991 11.4202 78.3774 11.1789C78.0691 10.9242 77.6603 10.7969 77.151 10.7969C76.8025 10.7969 76.454 10.8907 76.1055 11.0784C75.757 11.2526 75.3884 11.5274 74.9997 11.9027V16.5069C75.3616 16.8018 75.7101 17.0162 76.0452 17.1503C76.3937 17.2709 76.7086 17.3312 76.9901 17.3312ZM84.0362 19V9.12811H85.9463L86.1071 10.4752H86.1875C86.6031 10.0329 87.0588 9.65756 87.5547 9.34927C88.0507 9.04098 88.6002 8.88684 89.2034 8.88684C89.9406 8.88684 90.5237 9.04098 90.9526 9.34927C91.3815 9.65756 91.7099 10.0932 91.9378 10.6561C92.4069 10.1468 92.8961 9.72458 93.4055 9.38948C93.9148 9.05439 94.4845 8.88684 95.1145 8.88684C96.16 8.88684 96.924 9.22864 97.4065 9.91223C97.9024 10.5958 98.1504 11.5609 98.1504 12.8074V19H95.8383V13.109C95.8383 12.2914 95.7176 11.715 95.4764 11.3799C95.2351 11.0314 94.8531 10.8572 94.3303 10.8572C94.022 10.8572 93.6937 10.9577 93.3452 11.1588C93.0101 11.3598 92.6482 11.6748 92.2595 12.1038V19H89.9473V13.109C89.9473 12.2914 89.82 11.715 89.5653 11.3799C89.324 11.0314 88.942 10.8572 88.4193 10.8572C87.8027 10.8572 87.1124 11.2727 86.3484 12.1038V19H84.0362ZM105.203 19.2413C104.291 19.2413 103.467 19.0402 102.73 18.6381C101.993 18.2226 101.41 17.6328 100.981 16.8688C100.552 16.0914 100.337 15.1598 100.337 14.0741C100.337 13.0018 100.552 12.0836 100.981 11.3196C101.423 10.5422 101.993 9.94574 102.69 9.53022C103.387 9.1013 104.117 8.88684 104.881 8.88684C105.766 8.88684 106.51 9.0879 107.113 9.49001C107.73 9.87872 108.192 10.4283 108.5 11.1387C108.809 11.8357 108.963 12.6466 108.963 13.5715C108.963 13.7859 108.949 14.0004 108.923 14.2148C108.909 14.4159 108.889 14.5767 108.862 14.6974H102.107L102.066 13.1291H106.972C106.972 12.3517 106.798 11.7486 106.45 11.3196C106.114 10.8907 105.612 10.6762 104.942 10.6762C104.539 10.6762 104.151 10.7902 103.775 11.018C103.4 11.2325 103.085 11.5877 102.83 12.0836C102.589 12.5796 102.475 13.2364 102.489 14.054C102.515 14.8582 102.67 15.515 102.951 16.0244C103.233 16.5203 103.594 16.8822 104.037 17.1101C104.493 17.3379 104.982 17.4519 105.505 17.4519C105.933 17.4519 106.336 17.3915 106.711 17.2709C107.1 17.1503 107.468 16.9827 107.817 16.7683L108.581 18.1757C108.125 18.4974 107.602 18.7587 107.012 18.9598C106.436 19.1474 105.833 19.2413 105.203 19.2413Z" fill="#ECECEC"/>
</svg>
