<svg width="145" height="38" viewBox="0 0 145 38" fill="none" xmlns="http://www.w3.org/2000/svg">
<g filter="url(#filter0_d_2024_48)">
<rect x="2" width="141" height="34" rx="5" fill="#CCEDED"/>
<path d="M15.079 22V13.498H16.782L18.29 17.645C18.3853 17.9223 18.4763 18.204 18.563 18.49C18.6497 18.7673 18.7407 19.0447 18.836 19.322H18.888C18.9833 19.0447 19.07 18.7673 19.148 18.49C19.2347 18.204 19.3257 17.9223 19.421 17.645L20.89 13.498H22.606V22H21.215V18.113C21.215 17.853 21.2237 17.5497 21.241 17.203C21.267 16.8563 21.293 16.5097 21.319 16.163C21.3537 15.8163 21.384 15.513 21.41 15.253H21.358L20.669 17.385L19.265 21.207H18.381L16.977 17.385L16.301 15.253H16.249C16.275 15.513 16.301 15.8163 16.327 16.163C16.3617 16.5097 16.3877 16.8563 16.405 17.203C16.4223 17.5497 16.431 17.853 16.431 18.113V22H15.079ZM27.1055 22.156C26.5162 22.156 25.9832 22.026 25.5065 21.766C25.0299 21.4973 24.6529 21.116 24.3755 20.622C24.0982 20.1193 23.9595 19.517 23.9595 18.815C23.9595 18.1217 24.0982 17.528 24.3755 17.034C24.6615 16.5313 25.0299 16.1457 25.4805 15.877C25.9312 15.5997 26.4035 15.461 26.8975 15.461C27.4695 15.461 27.9505 15.591 28.3405 15.851C28.7392 16.1023 29.0382 16.4577 29.2375 16.917C29.4369 17.3677 29.5365 17.892 29.5365 18.49C29.5365 18.6287 29.5279 18.7673 29.5105 18.906C29.5019 19.036 29.4889 19.14 29.4715 19.218H25.1035L25.0775 18.204H28.2495C28.2495 17.7013 28.1369 17.3113 27.9115 17.034C27.6949 16.7567 27.3699 16.618 26.9365 16.618C26.6765 16.618 26.4252 16.6917 26.1825 16.839C25.9399 16.9777 25.7362 17.2073 25.5715 17.528C25.4155 17.8487 25.3419 18.2733 25.3505 18.802C25.3679 19.322 25.4675 19.7467 25.6495 20.076C25.8315 20.3967 26.0655 20.6307 26.3515 20.778C26.6462 20.9253 26.9625 20.999 27.3005 20.999C27.5779 20.999 27.8379 20.96 28.0805 20.882C28.3319 20.804 28.5702 20.6957 28.7955 20.557L29.2895 21.467C28.9949 21.675 28.6569 21.844 28.2755 21.974C27.9029 22.0953 27.5129 22.156 27.1055 22.156ZM32.9404 22.156C32.1431 22.156 31.5061 21.8613 31.0294 21.272C30.5527 20.6827 30.3144 19.8637 30.3144 18.815C30.3144 18.1217 30.4401 17.5237 30.6914 17.021C30.9514 16.5183 31.2894 16.1327 31.7054 15.864C32.1214 15.5953 32.5591 15.461 33.0184 15.461C33.3824 15.461 33.6901 15.526 33.9414 15.656C34.2014 15.7773 34.4527 15.9463 34.6954 16.163L34.6304 15.136V12.822H36.1384V22H34.9164L34.7994 21.311H34.7474C34.5134 21.545 34.2361 21.7443 33.9154 21.909C33.6034 22.0737 33.2784 22.156 32.9404 22.156ZM33.3044 20.921C33.5557 20.921 33.7897 20.8647 34.0064 20.752C34.2231 20.6393 34.4311 20.453 34.6304 20.193V17.229C34.4137 17.0297 34.1971 16.891 33.9804 16.813C33.7724 16.735 33.5601 16.696 33.3434 16.696C33.0661 16.696 32.8147 16.7783 32.5894 16.943C32.3727 17.1077 32.1951 17.346 32.0564 17.658C31.9177 17.97 31.8484 18.3513 31.8484 18.802C31.8484 19.4867 31.9741 20.011 32.2254 20.375C32.4854 20.739 32.8451 20.921 33.3044 20.921ZM37.7823 22V15.617H39.2773V22H37.7823ZM38.5363 14.499C38.2676 14.499 38.0509 14.421 37.8863 14.265C37.7216 14.109 37.6393 13.901 37.6393 13.641C37.6393 13.3897 37.7216 13.186 37.8863 13.03C38.0509 12.8653 38.2676 12.783 38.5363 12.783C38.8049 12.783 39.0216 12.8653 39.1863 13.03C39.3509 13.186 39.4333 13.3897 39.4333 13.641C39.4333 13.901 39.3509 14.109 39.1863 14.265C39.0216 14.421 38.8049 14.499 38.5363 14.499ZM43.6029 22.156C43.0136 22.156 42.4806 22.026 42.0039 21.766C41.5359 21.4973 41.1676 21.116 40.8989 20.622C40.6303 20.1193 40.4959 19.517 40.4959 18.815C40.4959 18.1043 40.6433 17.502 40.9379 17.008C41.2413 16.5053 41.6356 16.124 42.1209 15.864C42.6063 15.5953 43.1306 15.461 43.6939 15.461C44.1013 15.461 44.4566 15.526 44.7599 15.656C45.0719 15.786 45.3406 15.9593 45.5659 16.176L44.8379 17.099C44.6993 16.9777 44.5433 16.878 44.3699 16.8C44.2053 16.722 44.0059 16.683 43.7719 16.683C43.4339 16.683 43.1349 16.7697 42.8749 16.943C42.6149 17.1163 42.4069 17.3677 42.2509 17.697C42.1036 18.0177 42.0299 18.3903 42.0299 18.815C42.0299 19.2397 42.1036 19.6123 42.2509 19.933C42.3983 20.2537 42.5976 20.5007 42.8489 20.674C43.1089 20.8473 43.4079 20.934 43.7459 20.934C43.9886 20.934 44.2183 20.8863 44.4349 20.791C44.6603 20.6957 44.8639 20.5743 45.0459 20.427L45.6569 21.337C45.3969 21.5883 45.0893 21.7877 44.7339 21.935C44.3786 22.0823 44.0016 22.156 43.6029 22.156ZM48.0769 22.156C47.7042 22.156 47.3749 22.078 47.0889 21.922C46.8029 21.7573 46.5819 21.5363 46.4259 21.259C46.2699 20.973 46.1919 20.648 46.1919 20.284C46.1919 19.5993 46.4865 19.0707 47.0759 18.698C47.6739 18.3167 48.6272 18.0567 49.9359 17.918C49.9359 17.6927 49.8969 17.4847 49.8189 17.294C49.7495 17.1033 49.6325 16.9517 49.4679 16.839C49.3032 16.7263 49.0735 16.67 48.7789 16.67C48.4669 16.67 48.1592 16.7307 47.8559 16.852C47.5612 16.9647 47.2709 17.1033 46.9849 17.268L46.4389 16.293C46.6729 16.1457 46.9285 16.007 47.2059 15.877C47.4832 15.747 47.7779 15.6473 48.0899 15.578C48.4019 15.5 48.7269 15.461 49.0649 15.461C49.6022 15.461 50.0442 15.5693 50.3909 15.786C50.7375 15.994 50.9975 16.306 51.1709 16.722C51.3529 17.1293 51.4439 17.6277 51.4439 18.217V22H50.2219L50.1049 21.298H50.0529C49.7755 21.532 49.4722 21.7357 49.1429 21.909C48.8135 22.0737 48.4582 22.156 48.0769 22.156ZM48.5579 20.986C48.8179 20.986 49.0519 20.9253 49.2599 20.804C49.4765 20.674 49.7019 20.5007 49.9359 20.284V18.854C49.3639 18.9233 48.9089 19.023 48.5709 19.153C48.2415 19.2743 48.0032 19.4217 47.8559 19.595C47.7085 19.7597 47.6349 19.9503 47.6349 20.167C47.6349 20.4443 47.7215 20.6523 47.8949 20.791C48.0682 20.921 48.2892 20.986 48.5579 20.986ZM54.429 22.13C54.0736 22.13 53.7876 22.0607 53.571 21.922C53.363 21.7747 53.2113 21.5667 53.116 21.298C53.0206 21.0293 52.973 20.7087 52.973 20.336V12.822H54.468V20.414C54.468 20.596 54.5026 20.726 54.572 20.804C54.6413 20.8733 54.7193 20.908 54.806 20.908C54.8406 20.908 54.871 20.908 54.897 20.908C54.9316 20.8993 54.975 20.8907 55.027 20.882L55.209 22C55.131 22.0433 55.0226 22.0737 54.884 22.091C54.754 22.117 54.6023 22.13 54.429 22.13Z" fill="#0A8F91"/>
<path d="M126 6V28M115 17H137" stroke="#00A4A6" stroke-opacity="0.3" stroke-width="6.28571" stroke-linejoin="round"/>
</g>
<defs>
<filter id="filter0_d_2024_48" x="0" y="0" width="145" height="38" filterUnits="userSpaceOnUse" color-interpolation-filters="sRGB">
<feFlood flood-opacity="0" result="BackgroundImageFix"/>
<feColorMatrix in="SourceAlpha" type="matrix" values="0 0 0 0 0 0 0 0 0 0 0 0 0 0 0 0 0 0 127 0" result="hardAlpha"/>
<feOffset dy="2"/>
<feGaussianBlur stdDeviation="1"/>
<feComposite in2="hardAlpha" operator="out"/>
<feColorMatrix type="matrix" values="0 0 0 0 0 0 0 0 0 0.376471 0 0 0 0 0.380392 0 0 0 0.25 0"/>
<feBlend mode="normal" in2="BackgroundImageFix" result="effect1_dropShadow_2024_48"/>
<feBlend mode="normal" in="SourceGraphic" in2="effect1_dropShadow_2024_48" result="shape"/>
</filter>
</defs>
</svg>
