<svg width="11" height="11" viewBox="0 0 11 11" fill="none" xmlns="http://www.w3.org/2000/svg">
<path d="M10.5629 8.17296V9.75937C10.5635 9.90664 10.5334 10.0524 10.4744 10.1873C10.4155 10.3223 10.3291 10.4434 10.2207 10.543C10.1123 10.6425 9.98433 10.7183 9.84498 10.7655C9.70564 10.8127 9.55799 10.8302 9.41149 10.817C7.78622 10.6402 6.22504 10.0841 4.85338 9.19355C3.57723 8.38166 2.49528 7.29842 1.68436 6.02074C0.791744 4.64121 0.236249 3.07056 0.0628808 1.43604C0.049682 1.28981 0.06704 1.14243 0.113849 1.00328C0.160659 0.864136 0.235894 0.736272 0.334765 0.627832C0.433635 0.519392 0.553976 0.432751 0.688123 0.373427C0.822271 0.314102 0.967287 0.283393 1.11394 0.283254H2.69845C2.95477 0.280729 3.20327 0.371606 3.39762 0.538947C3.59197 0.706288 3.71891 0.938675 3.75479 1.19279C3.82167 1.70048 3.9457 2.19896 4.12451 2.67872C4.19557 2.86799 4.21095 3.07369 4.16882 3.27144C4.1267 3.4692 4.02884 3.65072 3.88683 3.79449L3.21605 4.46607C3.96793 5.78995 5.06278 6.8861 6.38507 7.63887L7.05585 6.9673C7.19945 6.82512 7.38076 6.72714 7.57827 6.68497C7.77579 6.64279 7.98124 6.65819 8.17029 6.72934C8.64948 6.90836 9.14737 7.03254 9.65445 7.0995C9.91101 7.13574 10.1453 7.26512 10.3128 7.46305C10.4803 7.66097 10.5693 7.91363 10.5629 8.17296Z" fill="#015EC3"/>
</svg>
