<svg width="22" height="22" viewBox="0 0 22 22" fill="none" xmlns="http://www.w3.org/2000/svg">
<g clip-path="url(#clip0_110_73)">
<rect width="22" height="22" fill="#FFF1A5"/>
<path d="M20.625 20.625H19.25H15.8129H15.8125V12.375C17.0884 12.3764 18.3117 12.8839 19.2139 13.7861C20.1161 14.6883 20.6236 15.9116 20.625 17.1875V20.625Z" fill="#E7CC37"/>
<path d="M20.625 20.625H19.25H15.8129H15.8125V12.375C17.0884 12.3764 18.3117 12.8839 19.2139 13.7861C20.1161 14.6883 20.6236 15.9116 20.625 17.1875V20.625Z" stroke="#FFD700"/>
<path d="M15.125 20.625H13.75V17.1875C13.7489 16.2761 13.3864 15.4024 12.742 14.758C12.0976 14.1136 11.2239 13.7511 10.3125 13.75H6.1875C5.27615 13.7511 4.40243 14.1136 3.75801 14.758C3.11358 15.4024 2.75107 16.2761 2.75 17.1875V20.625H1.375V17.1875C1.37649 15.9116 1.884 14.6884 2.7862 13.7862C3.68839 12.884 4.9116 12.3765 6.1875 12.375H10.3125C11.5884 12.3765 12.8116 12.884 13.7138 13.7862C14.616 14.6884 15.1235 15.9116 15.125 17.1875V20.625Z" fill="#E7CC37"/>
<path d="M13.75 20.625V17.1875C13.7489 16.2761 13.3864 15.4024 12.742 14.758C12.0976 14.1136 11.2239 13.7511 10.3125 13.75H6.1875C5.27615 13.7511 4.40243 14.1136 3.75801 14.758C3.11358 15.4024 2.75107 16.2761 2.75 17.1875V20.625H13.75Z" fill="#E7CC37"/>
<path d="M13.75 1.375V2.75C14.6617 2.75 15.536 3.11216 16.1807 3.75682C16.8253 4.40148 17.1875 5.27582 17.1875 6.1875C17.1875 7.09918 16.8253 7.97352 16.1807 8.61818C15.536 9.26284 14.6617 9.625 13.75 9.625V11C15.0264 11 16.2504 10.493 17.153 9.59045C18.0555 8.68793 18.5625 7.46385 18.5625 6.1875C18.5625 4.91115 18.0555 3.68707 17.153 2.78455C16.2504 1.88203 15.0264 1.375 13.75 1.375Z" fill="#E7CC37"/>
<path d="M16.1807 3.75682C15.536 3.11216 14.6617 2.75 13.75 2.75V9.625C14.6617 9.625 15.536 9.26284 16.1807 8.61818C16.8253 7.97352 17.1875 7.09918 17.1875 6.1875C17.1875 5.27582 16.8253 4.40148 16.1807 3.75682Z" fill="#E7CC37"/>
<path d="M8.25 2.75C8.92988 2.75 9.59448 2.95161 10.1598 3.32932C10.7251 3.70704 11.1657 4.2439 11.4258 4.87203C11.686 5.50015 11.7541 6.19131 11.6215 6.85812C11.4888 7.52493 11.1614 8.13744 10.6807 8.61818C10.1999 9.09892 9.58743 9.42631 8.92062 9.55895C8.25382 9.69159 7.56265 9.62351 6.93453 9.36334C6.30641 9.10316 5.76954 8.66257 5.39183 8.09727C5.01411 7.53198 4.8125 6.86737 4.8125 6.1875C4.8125 5.27582 5.17467 4.40148 5.81932 3.75682C6.46398 3.11216 7.33832 2.75 8.25 2.75ZM8.25 1.375C7.29818 1.375 6.36773 1.65725 5.57632 2.18605C4.78491 2.71486 4.16808 3.46647 3.80383 4.34584C3.43959 5.22521 3.34428 6.19284 3.52997 7.12637C3.71566 8.05991 4.17401 8.91741 4.84705 9.59045C5.52009 10.2635 6.3776 10.7218 7.31113 10.9075C8.24466 11.0932 9.2123 10.9979 10.0917 10.6337C10.971 10.2694 11.7226 9.65259 12.2514 8.86118C12.7803 8.06977 13.0625 7.13932 13.0625 6.1875C13.0625 4.91115 12.5555 3.68707 11.653 2.78455C10.7504 1.88203 9.52636 1.375 8.25 1.375Z" fill="#E7CC37"/>
<path d="M8.25 2.75C8.92988 2.75 9.59448 2.95161 10.1598 3.32932C10.7251 3.70704 11.1657 4.2439 11.4258 4.87203C11.686 5.50015 11.7541 6.19131 11.6215 6.85812C11.4888 7.52493 11.1614 8.13744 10.6807 8.61818C10.1999 9.09892 9.58743 9.42631 8.92062 9.55895C8.25382 9.69159 7.56265 9.62351 6.93453 9.36334C6.30641 9.10316 5.76954 8.66257 5.39183 8.09727C5.01411 7.53198 4.8125 6.86737 4.8125 6.1875C4.8125 5.27582 5.17467 4.40148 5.81932 3.75682C6.46398 3.11216 7.33832 2.75 8.25 2.75Z" fill="#E7CC37"/>
</g>
<defs>
<clipPath id="clip0_110_73">
<rect width="22" height="22" fill="white"/>
</clipPath>
</defs>
</svg>
