<svg width="145" height="38" viewBox="0 0 145 38" fill="none" xmlns="http://www.w3.org/2000/svg">
<g filter="url(#filter0_d_2024_54)">
<rect x="2" width="141" height="34" rx="5" fill="#FFF1A5"/>
<path d="M15.079 22V13.498H17.757C18.3897 13.498 18.953 13.5803 19.447 13.745C19.941 13.9097 20.331 14.1827 20.617 14.564C20.903 14.9453 21.046 15.4653 21.046 16.124C21.046 16.748 20.903 17.2637 20.617 17.671C20.331 18.0783 19.9453 18.3817 19.46 18.581C18.9747 18.7803 18.4243 18.88 17.809 18.88H16.587V22H15.079ZM16.587 17.671H17.692C18.3247 17.671 18.7927 17.5453 19.096 17.294C19.408 17.034 19.564 16.644 19.564 16.124C19.564 15.5953 19.3993 15.227 19.07 15.019C18.7493 14.811 18.2727 14.707 17.64 14.707H16.587V17.671ZM24.1407 22.156C23.456 22.156 22.9534 21.935 22.6327 21.493C22.3207 21.051 22.1647 20.427 22.1647 19.621V15.617H23.6727V19.426C23.6727 19.946 23.7507 20.3187 23.9067 20.544C24.0627 20.7607 24.314 20.869 24.6607 20.869C24.9467 20.869 25.1937 20.7997 25.4017 20.661C25.6184 20.5223 25.8437 20.297 26.0777 19.985V15.617H27.5727V22H26.3507L26.2337 21.064H26.1947C25.9087 21.3933 25.601 21.6577 25.2717 21.857C24.951 22.0563 24.574 22.156 24.1407 22.156ZM32.3003 22.156C32.0143 22.156 31.7197 22.0867 31.4163 21.948C31.113 21.8007 30.827 21.597 30.5583 21.337H30.5193L30.3893 22H29.2063V12.822H30.7013V15.188L30.6623 16.254C30.931 16.02 31.2213 15.8293 31.5333 15.682C31.854 15.5347 32.179 15.461 32.5083 15.461C33.037 15.461 33.4877 15.5953 33.8603 15.864C34.2417 16.1327 34.532 16.5097 34.7313 16.995C34.9307 17.4717 35.0303 18.0393 35.0303 18.698C35.0303 19.426 34.9003 20.05 34.6403 20.57C34.3803 21.09 34.0423 21.4843 33.6263 21.753C33.219 22.0217 32.777 22.156 32.3003 22.156ZM31.9883 20.921C32.2743 20.921 32.53 20.8387 32.7553 20.674C32.9807 20.5093 33.1583 20.2623 33.2883 19.933C33.4183 19.6037 33.4833 19.2007 33.4833 18.724C33.4833 18.2993 33.4357 17.9353 33.3403 17.632C33.245 17.3287 33.0933 17.099 32.8853 16.943C32.686 16.7783 32.4217 16.696 32.0923 16.696C31.867 16.696 31.6417 16.7567 31.4163 16.878C31.191 16.9907 30.9527 17.1683 30.7013 17.411V20.388C30.9267 20.5787 31.152 20.7173 31.3773 20.804C31.6027 20.882 31.8063 20.921 31.9883 20.921ZM37.7275 22.13C37.3722 22.13 37.0862 22.0607 36.8695 21.922C36.6615 21.7747 36.5099 21.5667 36.4145 21.298C36.3192 21.0293 36.2715 20.7087 36.2715 20.336V12.822H37.7665V20.414C37.7665 20.596 37.8012 20.726 37.8705 20.804C37.9399 20.8733 38.0179 20.908 38.1045 20.908C38.1392 20.908 38.1695 20.908 38.1955 20.908C38.2302 20.8993 38.2735 20.8907 38.3255 20.882L38.5075 22C38.4295 22.0433 38.3212 22.0737 38.1825 22.091C38.0525 22.117 37.9009 22.13 37.7275 22.13ZM39.5408 22V15.617H41.0358V22H39.5408ZM40.2948 14.499C40.0262 14.499 39.8095 14.421 39.6448 14.265C39.4802 14.109 39.3978 13.901 39.3978 13.641C39.3978 13.3897 39.4802 13.186 39.6448 13.03C39.8095 12.8653 40.0262 12.783 40.2948 12.783C40.5635 12.783 40.7802 12.8653 40.9448 13.03C41.1095 13.186 41.1918 13.3897 41.1918 13.641C41.1918 13.901 41.1095 14.109 40.9448 14.265C40.7802 14.421 40.5635 14.499 40.2948 14.499ZM45.3615 22.156C44.7722 22.156 44.2392 22.026 43.7625 21.766C43.2945 21.4973 42.9262 21.116 42.6575 20.622C42.3888 20.1193 42.2545 19.517 42.2545 18.815C42.2545 18.1043 42.4018 17.502 42.6965 17.008C42.9998 16.5053 43.3942 16.124 43.8795 15.864C44.3648 15.5953 44.8892 15.461 45.4525 15.461C45.8598 15.461 46.2152 15.526 46.5185 15.656C46.8305 15.786 47.0992 15.9593 47.3245 16.176L46.5965 17.099C46.4578 16.9777 46.3018 16.878 46.1285 16.8C45.9638 16.722 45.7645 16.683 45.5305 16.683C45.1925 16.683 44.8935 16.7697 44.6335 16.943C44.3735 17.1163 44.1655 17.3677 44.0095 17.697C43.8622 18.0177 43.7885 18.3903 43.7885 18.815C43.7885 19.2397 43.8622 19.6123 44.0095 19.933C44.1568 20.2537 44.3562 20.5007 44.6075 20.674C44.8675 20.8473 45.1665 20.934 45.5045 20.934C45.7472 20.934 45.9768 20.8863 46.1935 20.791C46.4188 20.6957 46.6225 20.5743 46.8045 20.427L47.4155 21.337C47.1555 21.5883 46.8478 21.7877 46.4925 21.935C46.1372 22.0823 45.7602 22.156 45.3615 22.156Z" fill="#AB9210"/>
<g clip-path="url(#clip0_2024_54)">
<rect width="22" height="22" transform="translate(115 6)" fill="#FFF1A5"/>
<path d="M135.625 26.625H134.25H130.813H130.812V18.375C132.088 18.3764 133.312 18.8839 134.214 19.7861C135.116 20.6883 135.624 21.9116 135.625 23.1875V26.625Z" fill="#E7CC37"/>
<path d="M135.625 26.625H134.25H130.813H130.812V18.375C132.088 18.3764 133.312 18.8839 134.214 19.7861C135.116 20.6883 135.624 21.9116 135.625 23.1875V26.625Z" stroke="#FFD700"/>
<path d="M130.125 26.625H128.75V23.1875C128.749 22.2761 128.386 21.4024 127.742 20.758C127.098 20.1136 126.224 19.7511 125.313 19.75H121.188C120.276 19.7511 119.402 20.1136 118.758 20.758C118.114 21.4024 117.751 22.2761 117.75 23.1875V26.625H116.375V23.1875C116.376 21.9116 116.884 20.6884 117.786 19.7862C118.688 18.884 119.912 18.3765 121.188 18.375H125.313C126.588 18.3765 127.812 18.884 128.714 19.7862C129.616 20.6884 130.124 21.9116 130.125 23.1875V26.625Z" fill="#E7CC37"/>
<path d="M128.75 26.625V23.1875C128.749 22.2761 128.386 21.4024 127.742 20.758C127.098 20.1136 126.224 19.7511 125.313 19.75H121.188C120.276 19.7511 119.402 20.1136 118.758 20.758C118.114 21.4024 117.751 22.2761 117.75 23.1875V26.625H128.75Z" fill="#E7CC37"/>
<path d="M128.75 7.375V8.75C129.662 8.75 130.536 9.11216 131.181 9.75682C131.825 10.4015 132.188 11.2758 132.188 12.1875C132.188 13.0992 131.825 13.9735 131.181 14.6182C130.536 15.2628 129.662 15.625 128.75 15.625V17C130.026 17 131.25 16.493 132.153 15.5905C133.055 14.6879 133.563 13.4639 133.563 12.1875C133.563 10.9111 133.055 9.68707 132.153 8.78455C131.25 7.88203 130.026 7.375 128.75 7.375Z" fill="#E7CC37"/>
<path d="M131.181 9.75682C130.536 9.11216 129.662 8.75 128.75 8.75V15.625C129.662 15.625 130.536 15.2628 131.181 14.6182C131.825 13.9735 132.188 13.0992 132.188 12.1875C132.188 11.2758 131.825 10.4015 131.181 9.75682Z" fill="#E7CC37"/>
<path d="M123.25 8.75C123.93 8.75 124.594 8.95161 125.16 9.32932C125.725 9.70704 126.166 10.2439 126.426 10.872C126.686 11.5001 126.754 12.1913 126.621 12.8581C126.489 13.5249 126.161 14.1374 125.681 14.6182C125.2 15.0989 124.587 15.4263 123.921 15.5589C123.254 15.6916 122.563 15.6235 121.935 15.3633C121.306 15.1032 120.77 14.6626 120.392 14.0973C120.014 13.532 119.813 12.8674 119.813 12.1875C119.813 11.2758 120.175 10.4015 120.819 9.75682C121.464 9.11216 122.338 8.75 123.25 8.75ZM123.25 7.375C122.298 7.375 121.368 7.65725 120.576 8.18605C119.785 8.71486 119.168 9.46647 118.804 10.3458C118.44 11.2252 118.344 12.1928 118.53 13.1264C118.716 14.0599 119.174 14.9174 119.847 15.5905C120.52 16.2635 121.378 16.7218 122.311 16.9075C123.245 17.0932 124.212 16.9979 125.092 16.6337C125.971 16.2694 126.723 15.6526 127.251 14.8612C127.78 14.0698 128.063 13.1393 128.063 12.1875C128.063 10.9111 127.555 9.68707 126.653 8.78455C125.75 7.88203 124.526 7.375 123.25 7.375Z" fill="#E7CC37"/>
<path d="M123.25 8.75C123.93 8.75 124.594 8.95161 125.16 9.32932C125.725 9.70704 126.166 10.2439 126.426 10.872C126.686 11.5001 126.754 12.1913 126.621 12.8581C126.489 13.5249 126.161 14.1374 125.681 14.6182C125.2 15.0989 124.587 15.4263 123.921 15.5589C123.254 15.6916 122.563 15.6235 121.935 15.3633C121.306 15.1032 120.77 14.6626 120.392 14.0973C120.014 13.532 119.813 12.8674 119.813 12.1875C119.813 11.2758 120.175 10.4015 120.819 9.75682C121.464 9.11216 122.338 8.75 123.25 8.75Z" fill="#E7CC37"/>
</g>
</g>
<defs>
<filter id="filter0_d_2024_54" x="0" y="0" width="145" height="38" filterUnits="userSpaceOnUse" color-interpolation-filters="sRGB">
<feFlood flood-opacity="0" result="BackgroundImageFix"/>
<feColorMatrix in="SourceAlpha" type="matrix" values="0 0 0 0 0 0 0 0 0 0 0 0 0 0 0 0 0 0 127 0" result="hardAlpha"/>
<feOffset dy="2"/>
<feGaussianBlur stdDeviation="1"/>
<feComposite in2="hardAlpha" operator="out"/>
<feColorMatrix type="matrix" values="0 0 0 0 0.494356 0 0 0 0 0.424751 0 0 0 0 0.0506218 0 0 0 0.25 0"/>
<feBlend mode="normal" in2="BackgroundImageFix" result="effect1_dropShadow_2024_54"/>
<feBlend mode="normal" in="SourceGraphic" in2="effect1_dropShadow_2024_54" result="shape"/>
</filter>
<clipPath id="clip0_2024_54">
<rect width="22" height="22" fill="white" transform="translate(115 6)"/>
</clipPath>
</defs>
</svg>
