<svg width="22" height="22" viewBox="0 0 22 22" fill="none" xmlns="http://www.w3.org/2000/svg">
<path d="M11.6875 1.83398C11.6875 1.45429 11.3797 1.14648 11 1.14648C10.6203 1.14648 10.3125 1.45429 10.3125 1.83398V4.58398C10.3125 4.96368 10.6203 5.27148 11 5.27148C11.3797 5.27148 11.6875 4.96368 11.6875 4.58398V1.83398Z" fill="#FF9999"/>
<path fill-rule="evenodd" clip-rule="evenodd" d="M1.83398 19.4798H3.66732V14.6673C3.66732 10.6172 6.95056 7.33398 11.0007 7.33398C15.0508 7.33398 18.334 10.6172 18.334 14.6673V19.4798H20.1673C20.547 19.4798 20.8548 19.7876 20.8548 20.1673C20.8548 20.547 20.547 20.8548 20.1673 20.8548H1.83398C1.45429 20.8548 1.14648 20.547 1.14648 20.1673C1.14648 19.7876 1.45429 19.4798 1.83398 19.4798ZM12.463 10.2844C12.6055 9.93237 13.0063 9.7626 13.3582 9.90505C14.45 10.347 15.3208 11.2178 15.7627 12.3095C15.9052 12.6615 16.0873 18.215 15.7354 18.3575C15.3834 18.5 14.1425 18.8519 14 18.5C13.6978 17.7534 13.5889 18.8022 12.8423 18.5C12.4904 18.3575 12.3206 10.6363 12.463 10.2844Z" fill="#FF9999"/>
<path d="M19.7361 5.01386C20.0046 5.28234 20.0046 5.71765 19.7361 5.98613L18.3611 7.36113C18.0926 7.62962 17.6574 7.62962 17.3889 7.36113C17.1204 7.09265 17.1204 6.65734 17.3889 6.38886L18.7639 5.01386C19.0324 4.74538 19.4676 4.74538 19.7361 5.01386Z" fill="#FF9999"/>
</svg>
