<svg width="833" height="754" viewBox="0 0 833 754" fill="none" xmlns="http://www.w3.org/2000/svg">
<rect width="832.453" height="753.153" fill="#007BFF"/>
<path fill-rule="evenodd" clip-rule="evenodd" d="M609.351 594.633C669.557 541.29 707.507 463.39 707.507 376.627C707.507 215.82 577.148 85.4609 416.342 85.4609C255.535 85.4609 125.176 215.82 125.176 376.627C125.176 537.433 255.535 667.793 416.342 667.793C432.39 667.793 448.135 666.494 463.478 663.997L421.239 578.749L404.709 543.301L349.722 492.221L314.214 416.074L248.377 358.865L250.789 341.756L268.731 337.386L337.367 398.884L375.324 480.283L432.28 530.445L497.29 481.171L536.804 416.971L537.696 360.613L552.934 324.737L580.505 311.88L586.627 325.009L568.324 366.31L566.776 422.974L530.09 484.836L546.696 520.447L609.351 594.633ZM461.689 367.285L491.48 391.754L501.592 377.448L465.778 300.645L442.572 201.179L422.798 189.621L410.761 203.226L436.894 314.113L461.689 367.285ZM405.378 352.785L379.393 331.336L325.825 216.459L333.444 198.521L352.083 204.215L415.752 340.755L405.378 352.785ZM275.966 286.062L337.115 360.641L372.158 382.661L379.777 364.723L298.812 268.216L280.347 268.035L275.966 286.062Z" fill="white" fill-opacity="0.7"/>
<path fill-rule="evenodd" clip-rule="evenodd" d="M609.351 594.633C669.557 541.29 707.507 463.39 707.507 376.627C707.507 215.82 577.148 85.4609 416.342 85.4609C255.535 85.4609 125.176 215.82 125.176 376.627C125.176 537.433 255.535 667.793 416.342 667.793C432.39 667.793 448.135 666.494 463.478 663.997L421.239 578.749L404.709 543.301L349.722 492.221L314.214 416.074L248.377 358.865L250.789 341.756L268.731 337.386L337.367 398.884L375.324 480.283L432.28 530.445L497.29 481.171L536.804 416.971L537.696 360.613L552.934 324.737L580.505 311.88L586.627 325.009L568.324 366.31L566.776 422.974L530.09 484.836L546.696 520.447L609.351 594.633ZM461.689 367.285L491.48 391.754L501.592 377.448L465.778 300.645L442.572 201.179L422.798 189.621L410.761 203.226L436.894 314.113L461.689 367.285ZM405.378 352.785L379.393 331.336L325.825 216.459L333.444 198.521L352.083 204.215L415.752 340.755L405.378 352.785ZM275.966 286.062L337.115 360.641L372.158 382.661L379.777 364.723L298.812 268.216L280.347 268.035L275.966 286.062Z" fill="white" fill-opacity="0.7"/>
</svg>
