<svg width="145" height="38" viewBox="0 0 145 38" fill="none" xmlns="http://www.w3.org/2000/svg">
<g filter="url(#filter0_d_2024_66)">
<g clip-path="url(#clip0_2024_66)">
<rect x="2" width="141" height="34" rx="5" fill="#B3DEFF"/>
<path d="M16.795 22V14.759H14.351V13.498H20.76V14.759H18.303V22H16.795ZM21.2144 22V15.617H22.4494L22.5534 16.748H22.6054C22.8221 16.332 23.0907 16.0157 23.4114 15.799C23.7321 15.5737 24.0657 15.461 24.4124 15.461C24.5771 15.461 24.7157 15.474 24.8284 15.5C24.9411 15.5173 25.0451 15.5477 25.1404 15.591L24.8414 16.865C24.7374 16.839 24.6421 16.8217 24.5554 16.813C24.4687 16.7957 24.3561 16.787 24.2174 16.787C23.9661 16.787 23.7017 16.8867 23.4244 17.086C23.1471 17.2767 22.9087 17.6147 22.7094 18.1V22H21.2144ZM27.0082 22.156C26.6356 22.156 26.3062 22.078 26.0202 21.922C25.7342 21.7573 25.5132 21.5363 25.3572 21.259C25.2012 20.973 25.1232 20.648 25.1232 20.284C25.1232 19.5993 25.4179 19.0707 26.0072 18.698C26.6052 18.3167 27.5586 18.0567 28.8672 17.918C28.8672 17.6927 28.8282 17.4847 28.7502 17.294C28.6809 17.1033 28.5639 16.9517 28.3992 16.839C28.2346 16.7263 28.0049 16.67 27.7102 16.67C27.3982 16.67 27.0906 16.7307 26.7872 16.852C26.4926 16.9647 26.2022 17.1033 25.9162 17.268L25.3702 16.293C25.6042 16.1457 25.8599 16.007 26.1372 15.877C26.4146 15.747 26.7092 15.6473 27.0212 15.578C27.3332 15.5 27.6582 15.461 27.9962 15.461C28.5336 15.461 28.9756 15.5693 29.3222 15.786C29.6689 15.994 29.9289 16.306 30.1022 16.722C30.2842 17.1293 30.3752 17.6277 30.3752 18.217V22H29.1532L29.0362 21.298H28.9842C28.7069 21.532 28.4036 21.7357 28.0742 21.909C27.7449 22.0737 27.3896 22.156 27.0082 22.156ZM27.4892 20.986C27.7492 20.986 27.9832 20.9253 28.1912 20.804C28.4079 20.674 28.6332 20.5007 28.8672 20.284V18.854C28.2952 18.9233 27.8402 19.023 27.5022 19.153C27.1729 19.2743 26.9346 19.4217 26.7872 19.595C26.6399 19.7597 26.5662 19.9503 26.5662 20.167C26.5662 20.4443 26.6529 20.6523 26.8262 20.791C26.9996 20.921 27.2206 20.986 27.4892 20.986ZM33.3344 22L31.1114 15.617H32.6324L33.6464 18.932C33.733 19.244 33.8197 19.5603 33.9064 19.881C34.0017 20.2017 34.097 20.5223 34.1924 20.843H34.2444C34.331 20.5223 34.4177 20.2017 34.5044 19.881C34.5997 19.5603 34.6907 19.244 34.7774 18.932L35.7914 15.617H37.2344L35.0634 22H33.3344ZM40.7347 22.156C40.1454 22.156 39.6124 22.026 39.1357 21.766C38.659 21.4973 38.282 21.116 38.0047 20.622C37.7274 20.1193 37.5887 19.517 37.5887 18.815C37.5887 18.1217 37.7274 17.528 38.0047 17.034C38.2907 16.5313 38.659 16.1457 39.1097 15.877C39.5604 15.5997 40.0327 15.461 40.5267 15.461C41.0987 15.461 41.5797 15.591 41.9697 15.851C42.3684 16.1023 42.6674 16.4577 42.8667 16.917C43.066 17.3677 43.1657 17.892 43.1657 18.49C43.1657 18.6287 43.157 18.7673 43.1397 18.906C43.131 19.036 43.118 19.14 43.1007 19.218H38.7327L38.7067 18.204H41.8787C41.8787 17.7013 41.766 17.3113 41.5407 17.034C41.324 16.7567 40.999 16.618 40.5657 16.618C40.3057 16.618 40.0544 16.6917 39.8117 16.839C39.569 16.9777 39.3654 17.2073 39.2007 17.528C39.0447 17.8487 38.971 18.2733 38.9797 18.802C38.997 19.322 39.0967 19.7467 39.2787 20.076C39.4607 20.3967 39.6947 20.6307 39.9807 20.778C40.2754 20.9253 40.5917 20.999 40.9297 20.999C41.207 20.999 41.467 20.96 41.7097 20.882C41.961 20.804 42.1994 20.6957 42.4247 20.557L42.9187 21.467C42.624 21.675 42.286 21.844 41.9047 21.974C41.532 22.0953 41.142 22.156 40.7347 22.156ZM45.7896 22.13C45.4342 22.13 45.1482 22.0607 44.9316 21.922C44.7236 21.7747 44.5719 21.5667 44.4766 21.298C44.3812 21.0293 44.3336 20.7087 44.3336 20.336V12.822H45.8286V20.414C45.8286 20.596 45.8632 20.726 45.9326 20.804C46.0019 20.8733 46.0799 20.908 46.1666 20.908C46.2012 20.908 46.2316 20.908 46.2576 20.908C46.2922 20.8993 46.3356 20.8907 46.3876 20.882L46.5696 22C46.4916 22.0433 46.3832 22.0737 46.2446 22.091C46.1146 22.117 45.9629 22.13 45.7896 22.13Z" fill="#006AFF"/>
<path d="M119.659 30.1886L120.263 29.6231C120.454 29.4414 120.633 29.2629 120.8 29.0808C121.129 28.7182 121.398 28.35 121.567 27.9862C121.912 27.2518 121.733 26.5781 120.814 26.0793C119.895 25.5705 118.377 25.229 116.809 24.991C113.47 24.5241 110.055 24.0046 106.751 23.3952C105.922 23.2422 105.097 23.0833 104.275 22.914C103.465 22.7487 102.587 22.5554 101.784 22.2938C100.99 22.0331 100.157 21.6856 99.7273 21.1529C99.5143 20.8909 99.4584 20.5946 99.53 20.3254C99.6023 20.0555 99.7832 19.8098 100.008 19.591C100.475 19.1425 101.047 18.819 101.564 18.472L103.171 17.4536L106.419 15.4385L111.948 12.0587L107.733 12C107.733 12 98.1308 16.2899 93.8448 18.9971C90.1186 21.3501 92.1539 23.4291 98.8944 24.8276C104.584 26.0085 109.909 26.9226 109.909 26.9226C110.826 27.1535 111.479 27.558 111.696 28.03C111.913 28.5025 111.673 28.9941 111.037 29.3779L96.3692 38.2388H111.004L117.228 32.4546L119.659 30.1886Z" fill="#75B7FE"/>
<path d="M133.737 25.3762C131.694 23.7161 128.197 22.5452 124.146 22.1646L109.795 20.6946C109.196 20.6387 108.693 20.4542 108.439 20.1978C108.185 19.9418 108.212 19.645 108.511 19.3995L118.051 12.1428L113.404 12.0781L107.529 15.8536L104.391 17.9015L102.848 18.9306C102.351 19.2769 101.804 19.6192 101.502 19.9394C101.181 20.2705 101.1 20.586 101.332 20.8479C101.556 21.1163 102.102 21.3659 102.762 21.5664C103.429 21.7717 104.163 21.9262 104.977 22.0811C105.778 22.2349 106.59 22.3807 107.408 22.5204C110.694 23.0815 114.004 23.5431 117.429 23.9789C119.185 24.2329 121.043 24.5731 122.524 25.3319C123.246 25.7117 123.784 26.2105 123.989 26.7268C124.199 27.2436 124.13 27.7524 123.946 28.2228C123.752 28.6929 123.449 29.1346 123.093 29.5555C122.913 29.7647 122.719 29.972 122.52 30.1717L121.941 30.7479L119.622 33.0438L114.36 38.2382H129.194L134.805 30.8254C136.169 29.0227 135.779 27.0363 133.737 25.3762Z" fill="#75B7FE"/>
</g>
</g>
<defs>
<filter id="filter0_d_2024_66" x="0" y="0" width="145" height="38" filterUnits="userSpaceOnUse" color-interpolation-filters="sRGB">
<feFlood flood-opacity="0" result="BackgroundImageFix"/>
<feColorMatrix in="SourceAlpha" type="matrix" values="0 0 0 0 0 0 0 0 0 0 0 0 0 0 0 0 0 0 127 0" result="hardAlpha"/>
<feOffset dy="2"/>
<feGaussianBlur stdDeviation="1"/>
<feComposite in2="hardAlpha" operator="out"/>
<feColorMatrix type="matrix" values="0 0 0 0 0.0117647 0 0 0 0 0.266667 0 0 0 0 0.545098 0 0 0 0.25 0"/>
<feBlend mode="normal" in2="BackgroundImageFix" result="effect1_dropShadow_2024_66"/>
<feBlend mode="normal" in="SourceGraphic" in2="effect1_dropShadow_2024_66" result="shape"/>
</filter>
<clipPath id="clip0_2024_66">
<rect x="2" width="141" height="34" rx="5" fill="white"/>
</clipPath>
</defs>
</svg>
