<svg width="44" height="27" viewBox="0 0 44 27" fill="none" xmlns="http://www.w3.org/2000/svg">
<path d="M41.5376 13.2981C39.4948 11.638 35.998 10.4671 31.9471 10.0865L17.5955 8.61647C16.9971 8.56056 16.494 8.37606 16.24 8.11967C15.986 7.86369 16.0131 7.56692 16.3115 7.32134L25.8519 0.0646745L21.205 0L15.3301 3.77551L12.1916 5.82337L10.6487 6.85252C10.1522 7.19875 9.60469 7.54104 9.303 7.86128C8.98169 8.19234 8.9011 8.50787 9.13296 8.7698C9.35649 9.03818 9.90311 9.28776 10.5624 9.48829C11.2299 9.69354 11.964 9.84805 12.7778 10.003C13.5785 10.1568 14.3906 10.3026 15.2085 10.4423C18.495 11.0034 21.8052 11.465 25.2297 11.9008C26.9855 12.1548 28.8441 12.495 30.3246 13.2538C31.0463 13.6336 31.5847 14.1324 31.7894 14.6487C31.9998 15.1655 31.9308 15.6743 31.7467 16.1447C31.5527 16.6147 31.2494 17.0564 30.8934 17.4773C30.7134 17.6866 30.5193 17.8939 30.3205 18.0935L29.7418 18.6698L27.4229 20.9657L22.1609 26.1601H36.995L42.606 18.7473C43.9699 16.9446 43.5802 14.9582 41.5376 13.2981Z" fill="#75B7FE"/>
<path d="M27.6594 18.1886L28.2628 17.6231C28.4543 17.4414 28.6326 17.2629 28.8003 17.0808C29.1291 16.7182 29.398 16.35 29.5673 15.9862C29.9117 15.2518 29.7325 14.5781 28.8135 14.0793C27.8945 13.5705 26.3771 13.229 24.8086 12.991C21.4696 12.5241 18.055 12.0046 14.7513 11.3952C13.9219 11.2422 13.0966 11.0833 12.2746 10.914C11.4648 10.7487 10.587 10.5554 9.78382 10.2938C8.98983 10.0331 8.15712 9.68559 7.72726 9.15288C7.51429 8.8909 7.45838 8.59458 7.53 8.32538C7.60226 8.05546 7.78317 7.80983 8.00764 7.59095C8.47453 7.14248 9.04742 6.81901 9.56367 6.47196L11.1708 5.45362L14.4186 3.43846L19.9483 0.0587298L15.7328 0C15.7328 0 6.13084 4.28989 1.84483 6.99709C-1.88136 9.35008 0.153885 11.4291 6.89445 12.8276C12.5836 14.0085 17.9087 14.9226 17.9087 14.9226C18.8261 15.1535 19.4787 15.558 19.6957 16.03C19.9127 16.5025 19.6727 16.9941 19.0373 17.3779L4.36922 26.2388H19.0036L25.2279 20.4546L27.6594 18.1886Z" fill="#75B7FE"/>
</svg>
