<svg width="49" height="44" viewBox="0 0 49 44" fill="none" xmlns="http://www.w3.org/2000/svg">
<path d="M37 34.5H37.025M33.5 27H39.5C41.8298 27 42.9945 27 43.9135 27.3805C45.1385 27.888 46.112 28.8615 46.6195 30.0865C47 31.0055 47 32.1702 47 34.5C47 36.8298 47 37.9945 46.6195 38.9135C46.112 40.1385 45.1385 41.112 43.9135 41.6195C42.9945 42 41.8298 42 39.5 42H9.5C7.1703 42 6.00545 42 5.08658 41.6195C3.86145 41.112 2.88808 40.1385 2.3806 38.9135C2 37.9945 2 36.8298 2 34.5C2 32.1702 2 31.0055 2.3806 30.0865C2.88808 28.8615 3.86145 27.888 5.08658 27.3805C6.00545 27 7.1703 27 9.5 27H15.5M24.5 29.5V2M24.5 2L32 9.5M24.5 2L17 9.5" stroke="#6A6A6A" stroke-width="4" stroke-linecap="round" stroke-linejoin="round"/>
</svg>
