<svg width="31" height="31" viewBox="0 0 31 31" fill="none" xmlns="http://www.w3.org/2000/svg">
<path d="M30.0862 5.96314C29.9809 5.43403 29.8343 5.16523 29.8343 5.16523C29.7892 5.02238 29.667 4.91713 29.5195 4.89361C29.371 4.87009 29.2225 4.93216 29.1351 5.05432L28.7423 5.60412L26.5234 8.72049C26.0949 9.32009 25.2199 9.42908 24.5687 8.9639L20.832 6.29021C20.1817 5.82504 20.0012 4.96134 20.4308 4.36174L22.7031 1.17018L23.0762 0.649556C23.1627 0.528301 23.174 0.367589 23.1053 0.236049C23.0358 0.103546 22.8986 0.0217472 22.7492 0.0236719C22.7492 0.0236719 22.3968 -0.0364745 21.8329 0.0349795C20.4148 0.216381 19.0332 0.806538 17.8773 1.81965C16.2468 3.24812 15.3897 5.232 15.3418 7.24131C15.3267 7.84746 15.8746 10.4789 14.4433 11.9102C13.012 13.3415 0.919835 25.4327 0.919835 25.4327C-0.306612 26.6601 -0.306612 28.6487 0.919835 29.8751C2.14718 31.1015 4.13581 31.1015 5.36219 29.8751C5.36219 29.8751 17.7505 17.4868 18.8858 16.3516C20.021 15.2163 23.1684 14.8799 23.7924 14.7953C25.1908 14.6064 26.5498 14.0181 27.6907 13.0181C29.7648 11.2006 30.588 8.48646 30.0862 5.96314ZM2.12373 28.6722C1.53543 28.0839 1.53543 27.1319 2.12373 26.5435C2.71112 25.9561 3.66402 25.9552 4.25141 26.5435C4.8397 27.1309 4.8397 28.0838 4.25141 28.6722C3.66402 29.2595 2.71106 29.2595 2.12373 28.6722Z" fill="#2142B3" fill-opacity="0.25"/>
</svg>
