<svg width="145" height="38" viewBox="0 0 145 38" fill="none" xmlns="http://www.w3.org/2000/svg">
<g filter="url(#filter0_d_2024_51)">
<g clip-path="url(#clip0_2024_51)">
<rect x="2" width="141" height="34" rx="5" fill="#D7E0FF"/>
<path d="M18.277 22.156C17.783 22.156 17.3367 22.0867 16.938 21.948C16.5393 21.8093 16.197 21.5883 15.911 21.285C15.6337 20.9817 15.417 20.5917 15.261 20.115C15.1137 19.6297 15.04 19.0403 15.04 18.347V13.498H16.548V18.464C16.548 19.062 16.6173 19.5343 16.756 19.881C16.9033 20.2277 17.107 20.4747 17.367 20.622C17.627 20.7693 17.9303 20.843 18.277 20.843C18.6237 20.843 18.927 20.7693 19.187 20.622C19.447 20.4747 19.6507 20.2277 19.798 19.881C19.9453 19.5343 20.019 19.062 20.019 18.464V13.498H21.475V18.347C21.475 19.0403 21.4013 19.6297 21.254 20.115C21.1067 20.5917 20.8943 20.9817 20.617 21.285C20.3397 21.5883 20.0017 21.8093 19.603 21.948C19.2043 22.0867 18.7623 22.156 18.277 22.156ZM25.4566 22.13C24.7199 22.13 24.1956 21.9177 23.8836 21.493C23.5802 21.0683 23.4286 20.5137 23.4286 19.829V16.8H22.5186V15.682L23.5066 15.617L23.6886 13.615H24.9366V15.617H26.5616V16.8H24.9366V19.829C24.9366 20.2017 25.0102 20.4833 25.1576 20.674C25.3049 20.856 25.5302 20.947 25.8336 20.947C25.9462 20.947 26.0589 20.9383 26.1716 20.921C26.2842 20.895 26.3926 20.8603 26.4966 20.817L26.7696 21.857C26.6049 21.935 26.4099 22 26.1846 22.052C25.9592 22.104 25.7166 22.13 25.4566 22.13ZM27.6448 22V15.617H29.1398V22H27.6448ZM28.3988 14.499C28.1302 14.499 27.9135 14.421 27.7488 14.265C27.5842 14.109 27.5018 13.901 27.5018 13.641C27.5018 13.3897 27.5842 13.186 27.7488 13.03C27.9135 12.8653 28.1302 12.783 28.3988 12.783C28.6675 12.783 28.8842 12.8653 29.0488 13.03C29.2135 13.186 29.2958 13.3897 29.2958 13.641C29.2958 13.901 29.2135 14.109 29.0488 14.265C28.8842 14.421 28.6675 14.499 28.3988 14.499ZM32.2305 22.13C31.8751 22.13 31.5891 22.0607 31.3725 21.922C31.1645 21.7747 31.0128 21.5667 30.9175 21.298C30.8221 21.0293 30.7745 20.7087 30.7745 20.336V12.822H32.2695V20.414C32.2695 20.596 32.3041 20.726 32.3735 20.804C32.4428 20.8733 32.5208 20.908 32.6075 20.908C32.6421 20.908 32.6725 20.908 32.6985 20.908C32.7331 20.8993 32.7765 20.8907 32.8285 20.882L33.0105 22C32.9325 22.0433 32.8241 22.0737 32.6855 22.091C32.5555 22.117 32.4038 22.13 32.2305 22.13ZM34.0438 22V15.617H35.5388V22H34.0438ZM34.7978 14.499C34.5291 14.499 34.3124 14.421 34.1478 14.265C33.9831 14.109 33.9008 13.901 33.9008 13.641C33.9008 13.3897 33.9831 13.186 34.1478 13.03C34.3124 12.8653 34.5291 12.783 34.7978 12.783C35.0664 12.783 35.2831 12.8653 35.4478 13.03C35.6124 13.186 35.6948 13.3897 35.6948 13.641C35.6948 13.901 35.6124 14.109 35.4478 14.265C35.2831 14.421 35.0664 14.499 34.7978 14.499ZM39.4224 22.13C38.6857 22.13 38.1614 21.9177 37.8494 21.493C37.5461 21.0683 37.3944 20.5137 37.3944 19.829V16.8H36.4844V15.682L37.4724 15.617L37.6544 13.615H38.9024V15.617H40.5274V16.8H38.9024V19.829C38.9024 20.2017 38.9761 20.4833 39.1234 20.674C39.2707 20.856 39.4961 20.947 39.7994 20.947C39.9121 20.947 40.0247 20.9383 40.1374 20.921C40.2501 20.895 40.3584 20.8603 40.4624 20.817L40.7354 21.857C40.5707 21.935 40.3757 22 40.1504 22.052C39.9251 22.104 39.6824 22.13 39.4224 22.13ZM41.6107 22V15.617H43.1057V22H41.6107ZM42.3647 14.499C42.096 14.499 41.8793 14.421 41.7147 14.265C41.55 14.109 41.4677 13.901 41.4677 13.641C41.4677 13.3897 41.55 13.186 41.7147 13.03C41.8793 12.8653 42.096 12.783 42.3647 12.783C42.6333 12.783 42.85 12.8653 43.0147 13.03C43.1793 13.186 43.2617 13.3897 43.2617 13.641C43.2617 13.901 43.1793 14.109 43.0147 14.265C42.85 14.421 42.6333 14.499 42.3647 14.499ZM47.4703 22.156C46.881 22.156 46.348 22.026 45.8713 21.766C45.3947 21.4973 45.0177 21.116 44.7403 20.622C44.463 20.1193 44.3243 19.517 44.3243 18.815C44.3243 18.1217 44.463 17.528 44.7403 17.034C45.0263 16.5313 45.3947 16.1457 45.8453 15.877C46.296 15.5997 46.7683 15.461 47.2623 15.461C47.8343 15.461 48.3153 15.591 48.7053 15.851C49.104 16.1023 49.403 16.4577 49.6023 16.917C49.8017 17.3677 49.9013 17.892 49.9013 18.49C49.9013 18.6287 49.8927 18.7673 49.8753 18.906C49.8667 19.036 49.8537 19.14 49.8363 19.218H45.4683L45.4423 18.204H48.6143C48.6143 17.7013 48.5017 17.3113 48.2763 17.034C48.0597 16.7567 47.7347 16.618 47.3013 16.618C47.0413 16.618 46.79 16.6917 46.5473 16.839C46.3047 16.9777 46.101 17.2073 45.9363 17.528C45.7803 17.8487 45.7067 18.2733 45.7153 18.802C45.7327 19.322 45.8323 19.7467 46.0143 20.076C46.1963 20.3967 46.4303 20.6307 46.7163 20.778C47.011 20.9253 47.3273 20.999 47.6653 20.999C47.9427 20.999 48.2027 20.96 48.4453 20.882C48.6967 20.804 48.935 20.6957 49.1603 20.557L49.6543 21.467C49.3597 21.675 49.0217 21.844 48.6403 21.974C48.2677 22.0953 47.8777 22.156 47.4703 22.156ZM52.8502 22.156C52.4082 22.156 51.9705 22.0737 51.5372 21.909C51.1125 21.7443 50.7442 21.5147 50.4322 21.22L51.0952 20.362C51.3812 20.596 51.6715 20.765 51.9662 20.869C52.2609 20.973 52.5685 21.025 52.8892 21.025C53.2445 21.025 53.5045 20.9513 53.6692 20.804C53.8425 20.6567 53.9292 20.4747 53.9292 20.258C53.9292 20.0847 53.8642 19.9373 53.7342 19.816C53.6129 19.6947 53.4482 19.5907 53.2402 19.504C53.0409 19.4173 52.8199 19.3307 52.5772 19.244C52.2739 19.1313 51.9835 18.997 51.7062 18.841C51.4289 18.6763 51.2079 18.477 51.0432 18.243C50.8785 18.0003 50.7962 17.71 50.7962 17.372C50.7962 16.8087 51.0042 16.3493 51.4202 15.994C51.8362 15.6387 52.4039 15.461 53.1232 15.461C53.5479 15.461 53.9422 15.5347 54.3062 15.682C54.6702 15.8207 54.9822 16.0027 55.2422 16.228L54.5792 17.073C54.3539 16.9083 54.1242 16.787 53.8902 16.709C53.6562 16.631 53.4092 16.592 53.1492 16.592C52.8285 16.592 52.5902 16.6613 52.4342 16.8C52.2782 16.93 52.2002 17.0947 52.2002 17.294C52.2002 17.45 52.2479 17.58 52.3432 17.684C52.4472 17.788 52.5945 17.8833 52.7852 17.97C52.9759 18.048 53.2055 18.1347 53.4742 18.23C53.8035 18.334 54.1112 18.4683 54.3972 18.633C54.6832 18.7977 54.9085 19.0057 55.0732 19.257C55.2465 19.4997 55.3332 19.803 55.3332 20.167C55.3332 20.531 55.2379 20.8647 55.0472 21.168C54.8565 21.4713 54.5792 21.714 54.2152 21.896C53.8512 22.0693 53.3962 22.156 52.8502 22.156Z" fill="#465CAA"/>
<path d="M134.086 14.9631C133.981 14.434 133.834 14.1652 133.834 14.1652C133.789 14.0224 133.667 13.9171 133.519 13.8936C133.371 13.8701 133.222 13.9322 133.135 14.0543L132.742 14.6041L130.523 17.7205C130.095 18.3201 129.22 18.4291 128.569 17.9639L124.832 15.2902C124.182 14.825 124.001 13.9613 124.431 13.3617L126.703 10.1702L127.076 9.64956C127.163 9.5283 127.174 9.36759 127.105 9.23605C127.036 9.10355 126.899 9.02175 126.749 9.02367C126.749 9.02367 126.397 8.96353 125.833 9.03498C124.415 9.21638 123.033 9.80654 121.877 10.8196C120.247 12.2481 119.39 14.232 119.342 16.2413C119.327 16.8475 119.875 19.4789 118.443 20.9102C117.012 22.3415 104.92 34.4327 104.92 34.4327C103.693 35.6601 103.693 37.6487 104.92 38.8751C106.147 40.1015 108.136 40.1015 109.362 38.8751C109.362 38.8751 121.751 26.4868 122.886 25.3516C124.021 24.2163 127.168 23.8799 127.792 23.7953C129.191 23.6064 130.55 23.0181 131.691 22.0181C133.765 20.2006 134.588 17.4865 134.086 14.9631ZM106.124 37.6722C105.535 37.0839 105.535 36.1319 106.124 35.5435C106.711 34.9561 107.664 34.9552 108.251 35.5435C108.84 36.1309 108.84 37.0838 108.251 37.6722C107.664 38.2595 106.711 38.2595 106.124 37.6722Z" fill="#2142B3" fill-opacity="0.25"/>
</g>
</g>
<defs>
<filter id="filter0_d_2024_51" x="0" y="0" width="145" height="38" filterUnits="userSpaceOnUse" color-interpolation-filters="sRGB">
<feFlood flood-opacity="0" result="BackgroundImageFix"/>
<feColorMatrix in="SourceAlpha" type="matrix" values="0 0 0 0 0 0 0 0 0 0 0 0 0 0 0 0 0 0 127 0" result="hardAlpha"/>
<feOffset dy="2"/>
<feGaussianBlur stdDeviation="1"/>
<feComposite in2="hardAlpha" operator="out"/>
<feColorMatrix type="matrix" values="0 0 0 0 0.129412 0 0 0 0 0.258824 0 0 0 0 0.701961 0 0 0 0.25 0"/>
<feBlend mode="normal" in2="BackgroundImageFix" result="effect1_dropShadow_2024_51"/>
<feBlend mode="normal" in="SourceGraphic" in2="effect1_dropShadow_2024_51" result="shape"/>
</filter>
<clipPath id="clip0_2024_51">
<rect x="2" width="141" height="34" rx="5" fill="white"/>
</clipPath>
</defs>
</svg>
