<svg width="318" height="63" viewBox="0 0 318 63" fill="none" xmlns="http://www.w3.org/2000/svg">
<g filter="url(#filter0_d_63_23)">
<g clip-path="url(#clip0_63_23)">
<mask id="path-1-inside-1_63_23" fill="white">
<path d="M0 5C0 2.23858 2.23858 0 5 0H313C315.761 0 318 2.23858 318 5V57H0V5Z"/>
</mask>
<path d="M0 5C0 2.23858 2.23858 0 5 0H313C315.761 0 318 2.23858 318 5V57H0V5Z" fill="#D7E0FF"/>
<path d="M30.922 34.216C30.238 34.216 29.62 34.12 29.068 33.928C28.516 33.736 28.042 33.43 27.646 33.01C27.262 32.59 26.962 32.05 26.746 31.39C26.542 30.718 26.44 29.902 26.44 28.942V22.228H28.528V29.104C28.528 29.932 28.624 30.586 28.816 31.066C29.02 31.546 29.302 31.888 29.662 32.092C30.022 32.296 30.442 32.398 30.922 32.398C31.402 32.398 31.822 32.296 32.182 32.092C32.542 31.888 32.824 31.546 33.028 31.066C33.232 30.586 33.334 29.932 33.334 29.104V22.228H35.35V28.942C35.35 29.902 35.248 30.718 35.044 31.39C34.84 32.05 34.546 32.59 34.162 33.01C33.778 33.43 33.31 33.736 32.758 33.928C32.206 34.12 31.594 34.216 30.922 34.216ZM40.8629 34.18C39.8429 34.18 39.1169 33.886 38.6849 33.298C38.2649 32.71 38.0549 31.942 38.0549 30.994V26.8H36.7949V25.252L38.1629 25.162L38.4149 22.39H40.1429V25.162H42.3929V26.8H40.1429V30.994C40.1429 31.51 40.2449 31.9 40.4489 32.164C40.6529 32.416 40.9649 32.542 41.3849 32.542C41.5409 32.542 41.6969 32.53 41.8529 32.506C42.0089 32.47 42.1589 32.422 42.3029 32.362L42.6809 33.802C42.4529 33.91 42.1829 34 41.8709 34.072C41.5589 34.144 41.2229 34.18 40.8629 34.18ZM43.8928 34V25.162H45.9628V34H43.8928ZM44.9368 23.614C44.5648 23.614 44.2648 23.506 44.0368 23.29C43.8088 23.074 43.6948 22.786 43.6948 22.426C43.6948 22.078 43.8088 21.796 44.0368 21.58C44.2648 21.352 44.5648 21.238 44.9368 21.238C45.3088 21.238 45.6088 21.352 45.8368 21.58C46.0648 21.796 46.1788 22.078 46.1788 22.426C46.1788 22.786 46.0648 23.074 45.8368 23.29C45.6088 23.506 45.3088 23.614 44.9368 23.614ZM50.2422 34.18C49.7502 34.18 49.3542 34.084 49.0542 33.892C48.7662 33.688 48.5562 33.4 48.4242 33.028C48.2922 32.656 48.2262 32.212 48.2262 31.696V21.292H50.2962V31.804C50.2962 32.056 50.3442 32.236 50.4402 32.344C50.5362 32.44 50.6442 32.488 50.7642 32.488C50.8122 32.488 50.8542 32.488 50.8902 32.488C50.9382 32.476 50.9982 32.464 51.0702 32.452L51.3222 34C51.2142 34.06 51.0642 34.102 50.8722 34.126C50.6922 34.162 50.4822 34.18 50.2422 34.18ZM52.7529 34V25.162H54.8229V34H52.7529ZM53.7969 23.614C53.4249 23.614 53.1249 23.506 52.8969 23.29C52.6689 23.074 52.5549 22.786 52.5549 22.426C52.5549 22.078 52.6689 21.796 52.8969 21.58C53.1249 21.352 53.4249 21.238 53.7969 21.238C54.1689 21.238 54.4689 21.352 54.6969 21.58C54.9249 21.796 55.0389 22.078 55.0389 22.426C55.0389 22.786 54.9249 23.074 54.6969 23.29C54.4689 23.506 54.1689 23.614 53.7969 23.614ZM60.2003 34.18C59.1803 34.18 58.4543 33.886 58.0223 33.298C57.6023 32.71 57.3923 31.942 57.3923 30.994V26.8H56.1323V25.252L57.5003 25.162L57.7523 22.39H59.4803V25.162H61.7303V26.8H59.4803V30.994C59.4803 31.51 59.5823 31.9 59.7863 32.164C59.9903 32.416 60.3023 32.542 60.7223 32.542C60.8783 32.542 61.0343 32.53 61.1903 32.506C61.3463 32.47 61.4963 32.422 61.6403 32.362L62.0183 33.802C61.7903 33.91 61.5203 34 61.2083 34.072C60.8963 34.144 60.5603 34.18 60.2003 34.18ZM63.2302 34V25.162H65.3002V34H63.2302ZM64.2742 23.614C63.9022 23.614 63.6022 23.506 63.3742 23.29C63.1462 23.074 63.0322 22.786 63.0322 22.426C63.0322 22.078 63.1462 21.796 63.3742 21.58C63.6022 21.352 63.9022 21.238 64.2742 21.238C64.6462 21.238 64.9462 21.352 65.1742 21.58C65.4022 21.796 65.5162 22.078 65.5162 22.426C65.5162 22.786 65.4022 23.074 65.1742 23.29C64.9462 23.506 64.6462 23.614 64.2742 23.614ZM71.3435 34.216C70.5275 34.216 69.7895 34.036 69.1295 33.676C68.4695 33.304 67.9475 32.776 67.5635 32.092C67.1795 31.396 66.9875 30.562 66.9875 29.59C66.9875 28.63 67.1795 27.808 67.5635 27.124C67.9595 26.428 68.4695 25.894 69.0935 25.522C69.7175 25.138 70.3715 24.946 71.0555 24.946C71.8475 24.946 72.5135 25.126 73.0535 25.486C73.6055 25.834 74.0195 26.326 74.2955 26.962C74.5715 27.586 74.7095 28.312 74.7095 29.14C74.7095 29.332 74.6975 29.524 74.6735 29.716C74.6615 29.896 74.6435 30.04 74.6195 30.148H68.5715L68.5355 28.744H72.9275C72.9275 28.048 72.7715 27.508 72.4595 27.124C72.1595 26.74 71.7095 26.548 71.1095 26.548C70.7495 26.548 70.4015 26.65 70.0655 26.854C69.7295 27.046 69.4475 27.364 69.2195 27.808C69.0035 28.252 68.9015 28.84 68.9135 29.572C68.9375 30.292 69.0755 30.88 69.3275 31.336C69.5795 31.78 69.9035 32.104 70.2995 32.308C70.7075 32.512 71.1455 32.614 71.6135 32.614C71.9975 32.614 72.3575 32.56 72.6935 32.452C73.0415 32.344 73.3715 32.194 73.6835 32.002L74.3675 33.262C73.9595 33.55 73.4915 33.784 72.9635 33.964C72.4475 34.132 71.9075 34.216 71.3435 34.216ZM78.7926 34.216C78.1806 34.216 77.5746 34.102 76.9746 33.874C76.3866 33.646 75.8766 33.328 75.4446 32.92L76.3626 31.732C76.7586 32.056 77.1606 32.29 77.5686 32.434C77.9766 32.578 78.4026 32.65 78.8466 32.65C79.3386 32.65 79.6986 32.548 79.9266 32.344C80.1666 32.14 80.2866 31.888 80.2866 31.588C80.2866 31.348 80.1966 31.144 80.0166 30.976C79.8486 30.808 79.6206 30.664 79.3326 30.544C79.0566 30.424 78.7506 30.304 78.4146 30.184C77.9946 30.028 77.5926 29.842 77.2086 29.626C76.8246 29.398 76.5186 29.122 76.2906 28.798C76.0626 28.462 75.9486 28.06 75.9486 27.592C75.9486 26.812 76.2366 26.176 76.8126 25.684C77.3886 25.192 78.1746 24.946 79.1706 24.946C79.7586 24.946 80.3046 25.048 80.8086 25.252C81.3126 25.444 81.7446 25.696 82.1046 26.008L81.1866 27.178C80.8746 26.95 80.5566 26.782 80.2326 26.674C79.9086 26.566 79.5666 26.512 79.2066 26.512C78.7626 26.512 78.4326 26.608 78.2166 26.8C78.0006 26.98 77.8926 27.208 77.8926 27.484C77.8926 27.7 77.9586 27.88 78.0906 28.024C78.2346 28.168 78.4386 28.3 78.7026 28.42C78.9666 28.528 79.2846 28.648 79.6566 28.78C80.1126 28.924 80.5386 29.11 80.9346 29.338C81.3306 29.566 81.6426 29.854 81.8706 30.202C82.1106 30.538 82.2306 30.958 82.2306 31.462C82.2306 31.966 82.0986 32.428 81.8346 32.848C81.5706 33.268 81.1866 33.604 80.6826 33.856C80.1786 34.096 79.5486 34.216 78.7926 34.216Z" fill="#465CAA"/>
<path d="M305.048 31.3909C304.915 30.7217 304.73 30.3818 304.73 30.3818C304.673 30.2011 304.518 30.068 304.332 30.0383C304.144 30.0085 303.956 30.087 303.846 30.2415L303.349 30.9368L300.543 34.8779C300.001 35.6362 298.894 35.774 298.071 35.1858L293.345 31.8045C292.523 31.2162 292.294 30.1239 292.838 29.3657L295.711 25.3295L296.183 24.6711C296.293 24.5177 296.307 24.3145 296.22 24.1481C296.132 23.9806 295.959 23.8771 295.77 23.8795C295.77 23.8795 295.324 23.8035 294.611 23.8938C292.817 24.1233 291.07 24.8696 289.608 26.1508C287.546 27.9573 286.462 30.4662 286.402 33.0073C286.383 33.7739 287.076 37.1017 285.266 38.9118C283.456 40.7218 268.163 56.013 268.163 56.013C266.612 57.5651 266.612 60.08 268.163 61.631C269.715 63.182 272.23 63.182 273.781 61.631C273.781 61.631 289.448 45.9642 290.884 44.5285C292.319 43.0928 296.3 42.6673 297.089 42.5604C298.857 42.3215 300.576 41.5775 302.019 40.3129C304.642 38.0143 305.683 34.582 305.048 31.3909ZM269.686 60.1097C268.942 59.3657 268.942 58.1618 269.686 57.4177C270.429 56.6749 271.634 56.6737 272.377 57.4177C273.121 58.1606 273.121 59.3656 272.377 60.1097C271.634 60.8525 270.429 60.8525 269.686 60.1097Z" fill="#0D3438" fill-opacity="0.25"/>
<path d="M305.048 31.5412C304.915 30.8721 304.73 30.5322 304.73 30.5322C304.673 30.3515 304.518 30.2184 304.332 30.1887C304.144 30.1589 303.956 30.2374 303.846 30.3919L303.349 31.0872L300.543 35.0283C300.001 35.7866 298.894 35.9244 298.071 35.3362L293.345 31.9549C292.523 31.3666 292.294 30.2743 292.838 29.516L295.711 25.4799L296.183 24.8215C296.293 24.6681 296.307 24.4649 296.22 24.2985C296.132 24.1309 295.959 24.0275 295.77 24.0299C295.77 24.0299 295.324 23.9539 294.611 24.0442C292.817 24.2736 291.07 25.02 289.608 26.3012C287.546 28.1077 286.462 30.6166 286.402 33.1577C286.383 33.9243 287.076 37.252 285.266 39.0621C283.456 40.8722 268.163 56.1634 268.163 56.1634C266.612 57.7155 266.612 60.2304 268.163 61.7814C269.715 63.3324 272.23 63.3324 273.781 61.7814C273.781 61.7814 289.448 46.1146 290.884 44.6789C292.319 43.2432 296.3 42.8177 297.089 42.7108C298.857 42.4719 300.576 41.7279 302.019 40.4633C304.642 38.1647 305.683 34.7324 305.048 31.5412ZM269.686 60.2601C268.942 59.5161 268.942 58.3122 269.686 57.5681C270.429 56.8253 271.634 56.8241 272.377 57.5681C273.121 58.3109 273.121 59.516 272.377 60.2601C271.634 61.0029 270.429 61.0029 269.686 60.2601Z" fill="#A9B8EC"/>
</g>
<path d="M0 0H318H0ZM318 57.5H0V56.5H318V57.5ZM0 57V0V57ZM318 0V57V0Z" fill="#465CAA" fill-opacity="0.5" mask="url(#path-1-inside-1_63_23)"/>
</g>
<defs>
<filter id="filter0_d_63_23" x="-4" y="-2" width="326" height="65" filterUnits="userSpaceOnUse" color-interpolation-filters="sRGB">
<feFlood flood-opacity="0" result="BackgroundImageFix"/>
<feColorMatrix in="SourceAlpha" type="matrix" values="0 0 0 0 0 0 0 0 0 0 0 0 0 0 0 0 0 0 127 0" result="hardAlpha"/>
<feOffset dy="2"/>
<feGaussianBlur stdDeviation="2"/>
<feComposite in2="hardAlpha" operator="out"/>
<feColorMatrix type="matrix" values="0 0 0 0 0.27451 0 0 0 0 0.360784 0 0 0 0 0.666667 0 0 0 0.25 0"/>
<feBlend mode="normal" in2="BackgroundImageFix" result="effect1_dropShadow_63_23"/>
<feBlend mode="normal" in="SourceGraphic" in2="effect1_dropShadow_63_23" result="shape"/>
</filter>
<clipPath id="clip0_63_23">
<path d="M0 5C0 2.23858 2.23858 0 5 0H313C315.761 0 318 2.23858 318 5V57H0V5Z" fill="white"/>
</clipPath>
</defs>
</svg>
