<svg width="145" height="38" viewBox="0 0 145 38" fill="none" xmlns="http://www.w3.org/2000/svg">
<g filter="url(#filter0_d_2024_62)">
<g clip-path="url(#clip0_2024_62)">
<rect x="2" width="141" height="34" rx="5" fill="#FFC7B3"/>
<path d="M16.548 22L13.948 13.498H15.547L16.691 17.775C16.7777 18.0957 16.86 18.4077 16.938 18.711C17.0247 19.0057 17.107 19.3047 17.185 19.608C17.2717 19.9027 17.3583 20.2103 17.445 20.531H17.497C17.5923 20.2103 17.6747 19.9027 17.744 19.608C17.822 19.3047 17.9 19.0057 17.978 18.711C18.0647 18.4077 18.1557 18.0957 18.251 17.775L19.473 13.498H21.02L18.329 22H16.548ZM24.1729 22.156C23.5836 22.156 23.0506 22.026 22.5739 21.766C22.0972 21.4973 21.7202 21.116 21.4429 20.622C21.1656 20.1193 21.0269 19.517 21.0269 18.815C21.0269 18.1217 21.1656 17.528 21.4429 17.034C21.7289 16.5313 22.0972 16.1457 22.5479 15.877C22.9986 15.5997 23.4709 15.461 23.9649 15.461C24.5369 15.461 25.0179 15.591 25.4079 15.851C25.8066 16.1023 26.1056 16.4577 26.3049 16.917C26.5042 17.3677 26.6039 17.892 26.6039 18.49C26.6039 18.6287 26.5952 18.7673 26.5779 18.906C26.5692 19.036 26.5562 19.14 26.5389 19.218H22.1709L22.1449 18.204H25.3169C25.3169 17.7013 25.2042 17.3113 24.9789 17.034C24.7622 16.7567 24.4372 16.618 24.0039 16.618C23.7439 16.618 23.4926 16.6917 23.2499 16.839C23.0072 16.9777 22.8036 17.2073 22.6389 17.528C22.4829 17.8487 22.4092 18.2733 22.4179 18.802C22.4352 19.322 22.5349 19.7467 22.7169 20.076C22.8989 20.3967 23.1329 20.6307 23.4189 20.778C23.7136 20.9253 24.0299 20.999 24.3679 20.999C24.6452 20.999 24.9052 20.96 25.1479 20.882C25.3992 20.804 25.6376 20.6957 25.8629 20.557L26.3569 21.467C26.0622 21.675 25.7242 21.844 25.3429 21.974C24.9702 22.0953 24.5802 22.156 24.1729 22.156ZM27.7718 22V12.822H29.2668V15.188L29.2018 16.423C29.4791 16.1717 29.7824 15.9507 30.1118 15.76C30.4411 15.5607 30.8224 15.461 31.2558 15.461C31.9404 15.461 32.4388 15.682 32.7508 16.124C33.0628 16.566 33.2188 17.19 33.2188 17.996V22H31.7238V18.191C31.7238 17.6623 31.6414 17.2897 31.4768 17.073C31.3208 16.8477 31.0694 16.735 30.7228 16.735C30.4454 16.735 30.1984 16.8043 29.9818 16.943C29.7738 17.0817 29.5354 17.281 29.2668 17.541V22H27.7718ZM34.7608 22V15.617H36.2558V22H34.7608ZM35.5148 14.499C35.2461 14.499 35.0295 14.421 34.8648 14.265C34.7001 14.109 34.6178 13.901 34.6178 13.641C34.6178 13.3897 34.7001 13.186 34.8648 13.03C35.0295 12.8653 35.2461 12.783 35.5148 12.783C35.7835 12.783 36.0001 12.8653 36.1648 13.03C36.3295 13.186 36.4118 13.3897 36.4118 13.641C36.4118 13.901 36.3295 14.109 36.1648 14.265C36.0001 14.421 35.7835 14.499 35.5148 14.499ZM40.5814 22.156C39.9921 22.156 39.4591 22.026 38.9824 21.766C38.5144 21.4973 38.1461 21.116 37.8774 20.622C37.6088 20.1193 37.4744 19.517 37.4744 18.815C37.4744 18.1043 37.6218 17.502 37.9164 17.008C38.2198 16.5053 38.6141 16.124 39.0994 15.864C39.5848 15.5953 40.1091 15.461 40.6724 15.461C41.0798 15.461 41.4351 15.526 41.7384 15.656C42.0504 15.786 42.3191 15.9593 42.5444 16.176L41.8164 17.099C41.6778 16.9777 41.5218 16.878 41.3484 16.8C41.1838 16.722 40.9844 16.683 40.7504 16.683C40.4124 16.683 40.1134 16.7697 39.8534 16.943C39.5934 17.1163 39.3854 17.3677 39.2294 17.697C39.0821 18.0177 39.0084 18.3903 39.0084 18.815C39.0084 19.2397 39.0821 19.6123 39.2294 19.933C39.3768 20.2537 39.5761 20.5007 39.8274 20.674C40.0874 20.8473 40.3864 20.934 40.7244 20.934C40.9671 20.934 41.1968 20.8863 41.4134 20.791C41.6388 20.6957 41.8424 20.5743 42.0244 20.427L42.6354 21.337C42.3754 21.5883 42.0678 21.7877 41.7124 21.935C41.3571 22.0823 40.9801 22.156 40.5814 22.156ZM45.0913 22.13C44.736 22.13 44.45 22.0607 44.2333 21.922C44.0253 21.7747 43.8737 21.5667 43.7783 21.298C43.683 21.0293 43.6353 20.7087 43.6353 20.336V12.822H45.1303V20.414C45.1303 20.596 45.165 20.726 45.2343 20.804C45.3037 20.8733 45.3817 20.908 45.4683 20.908C45.503 20.908 45.5333 20.908 45.5593 20.908C45.594 20.8993 45.6373 20.8907 45.6893 20.882L45.8713 22C45.7933 22.0433 45.685 22.0737 45.5463 22.091C45.4163 22.117 45.2647 22.13 45.0913 22.13ZM49.6346 22.156C49.0453 22.156 48.5123 22.026 48.0356 21.766C47.559 21.4973 47.182 21.116 46.9046 20.622C46.6273 20.1193 46.4886 19.517 46.4886 18.815C46.4886 18.1217 46.6273 17.528 46.9046 17.034C47.1906 16.5313 47.559 16.1457 48.0096 15.877C48.4603 15.5997 48.9326 15.461 49.4266 15.461C49.9986 15.461 50.4796 15.591 50.8696 15.851C51.2683 16.1023 51.5673 16.4577 51.7666 16.917C51.966 17.3677 52.0656 17.892 52.0656 18.49C52.0656 18.6287 52.057 18.7673 52.0396 18.906C52.031 19.036 52.018 19.14 52.0006 19.218H47.6326L47.6066 18.204H50.7786C50.7786 17.7013 50.666 17.3113 50.4406 17.034C50.224 16.7567 49.899 16.618 49.4656 16.618C49.2056 16.618 48.9543 16.6917 48.7116 16.839C48.469 16.9777 48.2653 17.2073 48.1006 17.528C47.9446 17.8487 47.871 18.2733 47.8796 18.802C47.897 19.322 47.9966 19.7467 48.1786 20.076C48.3606 20.3967 48.5946 20.6307 48.8806 20.778C49.1753 20.9253 49.4916 20.999 49.8296 20.999C50.107 20.999 50.367 20.96 50.6096 20.882C50.861 20.804 51.0993 20.6957 51.3246 20.557L51.8186 21.467C51.524 21.675 51.186 21.844 50.8046 21.974C50.432 22.0953 50.042 22.156 49.6346 22.156ZM55.0145 22.156C54.5725 22.156 54.1348 22.0737 53.7015 21.909C53.2768 21.7443 52.9085 21.5147 52.5965 21.22L53.2595 20.362C53.5455 20.596 53.8358 20.765 54.1305 20.869C54.4252 20.973 54.7328 21.025 55.0535 21.025C55.4088 21.025 55.6688 20.9513 55.8335 20.804C56.0068 20.6567 56.0935 20.4747 56.0935 20.258C56.0935 20.0847 56.0285 19.9373 55.8985 19.816C55.7772 19.6947 55.6125 19.5907 55.4045 19.504C55.2052 19.4173 54.9842 19.3307 54.7415 19.244C54.4382 19.1313 54.1478 18.997 53.8705 18.841C53.5932 18.6763 53.3722 18.477 53.2075 18.243C53.0428 18.0003 52.9605 17.71 52.9605 17.372C52.9605 16.8087 53.1685 16.3493 53.5845 15.994C54.0005 15.6387 54.5682 15.461 55.2875 15.461C55.7122 15.461 56.1065 15.5347 56.4705 15.682C56.8345 15.8207 57.1465 16.0027 57.4065 16.228L56.7435 17.073C56.5182 16.9083 56.2885 16.787 56.0545 16.709C55.8205 16.631 55.5735 16.592 55.3135 16.592C54.9928 16.592 54.7545 16.6613 54.5985 16.8C54.4425 16.93 54.3645 17.0947 54.3645 17.294C54.3645 17.45 54.4122 17.58 54.5075 17.684C54.6115 17.788 54.7588 17.8833 54.9495 17.97C55.1402 18.048 55.3698 18.1347 55.6385 18.23C55.9678 18.334 56.2755 18.4683 56.5615 18.633C56.8475 18.7977 57.0728 19.0057 57.2375 19.257C57.4108 19.4997 57.4975 19.803 57.4975 20.167C57.4975 20.531 57.4022 20.8647 57.2115 21.168C57.0208 21.4713 56.7435 21.714 56.3795 21.896C56.0155 22.0693 55.5605 22.156 55.0145 22.156Z" fill="#9F4729"/>
<path fill-rule="evenodd" clip-rule="evenodd" d="M137.081 11.6206C136.995 11.5977 136.906 11.5855 136.817 11.5841C136.73 11.583 136.642 11.5924 136.557 11.612C136.443 11.6108 136.32 11.6084 136.198 11.6059C136.024 11.6025 135.851 11.5991 135.7 11.5991C133.799 11.5991 131.916 11.6878 130.634 11.7645C129.29 11.8453 128.059 12.5429 127.293 13.6444L123.946 18.4591C122.006 18.7814 120.058 19.1626 118.723 19.4559C117.715 19.677 117 20.5726 117 21.6044V25.405C117 26.3554 117.61 27.1995 118.515 27.4954L119.462 27.8069C120.017 29.2555 121.415 30.2991 123.05 30.2991C124.571 30.2991 125.885 29.3919 126.509 28.0991H139.391C140.015 29.3919 141.329 30.2991 142.85 30.2991C144.456 30.2991 145.838 29.2934 146.412 27.8843L148.326 27.4138C149.309 27.1707 150 26.2881 150 25.2761V21.0587C150 20.0545 149.318 19.1855 148.352 18.9339L146.61 15.0151H146.612C145.763 13.103 143.894 11.8375 141.804 11.7538C140.369 11.6967 138.653 11.6455 137.081 11.6206ZM141.2 26.4491C141.2 25.5248 141.926 24.7991 142.85 24.7991C143.774 24.7991 144.5 25.5248 144.5 26.4491C144.5 27.3734 143.774 28.0991 142.85 28.0991C141.926 28.0991 141.2 27.3734 141.2 26.4491ZM121.4 26.4491C121.4 25.5248 122.126 24.7991 123.05 24.7991C123.974 24.7991 124.7 25.5248 124.7 26.4491C124.7 27.3734 123.974 28.0991 123.05 28.0991C122.126 28.0991 121.4 27.3734 121.4 26.4491ZM130.767 13.9602C132.022 13.8851 133.868 13.7991 135.7 13.7991V18.1991H126.805L129.1 14.9013V14.8991C129.485 14.3462 130.098 14.0004 130.767 13.9602ZM145.673 18.3216L145.127 18.1991H137.9V13.8356C139.208 13.8652 140.553 13.9054 141.716 13.9516C142.976 14.0021 144.09 14.7586 144.601 15.9089L145.673 18.3216Z" fill="#EE9A7C"/>
</g>
</g>
<defs>
<filter id="filter0_d_2024_62" x="0" y="0" width="145" height="38" filterUnits="userSpaceOnUse" color-interpolation-filters="sRGB">
<feFlood flood-opacity="0" result="BackgroundImageFix"/>
<feColorMatrix in="SourceAlpha" type="matrix" values="0 0 0 0 0 0 0 0 0 0 0 0 0 0 0 0 0 0 127 0" result="hardAlpha"/>
<feOffset dy="2"/>
<feGaussianBlur stdDeviation="1"/>
<feComposite in2="hardAlpha" operator="out"/>
<feColorMatrix type="matrix" values="0 0 0 0 0.443466 0 0 0 0 0.144507 0 0 0 0 0.0425896 0 0 0 0.25 0"/>
<feBlend mode="normal" in2="BackgroundImageFix" result="effect1_dropShadow_2024_62"/>
<feBlend mode="normal" in="SourceGraphic" in2="effect1_dropShadow_2024_62" result="shape"/>
</filter>
<clipPath id="clip0_2024_62">
<rect x="2" width="141" height="34" rx="5" fill="white"/>
</clipPath>
</defs>
</svg>
