<svg width="33" height="20" viewBox="0 0 33 20" fill="none" xmlns="http://www.w3.org/2000/svg">
<path fill-rule="evenodd" clip-rule="evenodd" d="M20.0814 0.620588C19.9952 0.597739 19.9064 0.585474 19.8172 0.584065C19.7297 0.583008 19.6425 0.592384 19.5572 0.611994C19.4426 0.610768 19.3203 0.608357 19.1981 0.605949C19.0242 0.602524 18.8507 0.599104 18.7 0.599104C16.7987 0.599104 14.9158 0.687822 13.634 0.764533C12.2898 0.845332 11.0592 1.54292 10.2932 2.64442L6.9459 7.45906C5.00574 7.78137 3.05764 8.16264 1.72305 8.45594C0.715446 8.67704 -7.15256e-07 9.57258 -7.15256e-07 10.6044V14.405C-7.15256e-07 15.3554 0.610448 16.1995 1.51465 16.4954L2.46211 16.8069C3.01672 18.2555 4.41545 19.2991 6.05 19.2991C7.57147 19.2991 8.88547 18.3919 9.50898 17.0991H22.391C23.0145 18.3919 24.3285 19.2991 25.85 19.2991C27.4561 19.2991 28.8381 18.2934 29.4121 16.8843L31.3264 16.4138C32.3087 16.1707 33 15.2881 33 14.2761V10.0587C33 9.05451 32.318 8.18552 31.3521 7.93387L29.6098 4.01512H29.6119C28.763 2.10302 26.8944 0.837528 24.8037 0.753791C23.3687 0.696663 21.6529 0.645468 20.0814 0.620588ZM24.2 15.4491C24.2 14.5248 24.9257 13.7991 25.85 13.7991C26.7743 13.7991 27.5 14.5248 27.5 15.4491C27.5 16.3734 26.7743 17.0991 25.85 17.0991C24.9257 17.0991 24.2 16.3734 24.2 15.4491ZM4.4 15.4491C4.4 14.5248 5.1257 13.7991 6.05 13.7991C6.9743 13.7991 7.7 14.5248 7.7 15.4491C7.7 16.3734 6.9743 17.0991 6.05 17.0991C5.1257 17.0991 4.4 16.3734 4.4 15.4491ZM13.7672 2.96024C15.0219 2.88515 16.8679 2.7991 18.7 2.7991V7.1991H9.80547L12.1 3.90125V3.8991C12.4845 3.3462 13.0984 3.00044 13.7672 2.96024ZM28.673 7.32156L28.1273 7.1991H20.9V2.83563C22.2077 2.86519 23.5532 2.90537 24.7156 2.95164C25.9756 3.00211 27.0903 3.75857 27.601 4.90887L28.673 7.32156Z" fill="#EE9A7C"/>
</svg>
